%TF.GenerationSoftware,KiCad,Pcbnew,7.0.11-7.0.11~ubuntu22.04.1*%
%TF.CreationDate,2024-08-09T11:46:46-04:00*%
%TF.ProjectId,colecovision_standard_cart,636f6c65-636f-4766-9973-696f6e5f7374,rev?*%
%TF.SameCoordinates,Original*%
%TF.FileFunction,Soldermask,Top*%
%TF.FilePolarity,Negative*%
%FSLAX46Y46*%
G04 Gerber Fmt 4.6, Leading zero omitted, Abs format (unit mm)*
G04 Created by KiCad (PCBNEW 7.0.11-7.0.11~ubuntu22.04.1) date 2024-08-09 11:46:46*
%MOMM*%
%LPD*%
G01*
G04 APERTURE LIST*
%ADD10C,1.600000*%
%ADD11C,6.400000*%
%ADD12R,1.600000X1.600000*%
%ADD13O,1.600000X1.600000*%
%ADD14R,1.524000X9.906000*%
G04 APERTURE END LIST*
D10*
%TO.C,C1*%
X160401000Y-96480000D03*
X160401000Y-91480000D03*
%TD*%
%TO.C,C2*%
X135763000Y-73366000D03*
X135763000Y-68366000D03*
%TD*%
D11*
%TO.C,H2*%
X166878000Y-61214000D03*
%TD*%
D12*
%TO.C,U1*%
X138938000Y-74549000D03*
D13*
X141478000Y-74549000D03*
X144018000Y-74549000D03*
X146558000Y-74549000D03*
X149098000Y-74549000D03*
X151638000Y-74549000D03*
X154178000Y-74549000D03*
X156718000Y-74549000D03*
X156718000Y-66929000D03*
X154178000Y-66929000D03*
X151638000Y-66929000D03*
X149098000Y-66929000D03*
X146558000Y-66929000D03*
X144018000Y-66929000D03*
X141478000Y-66929000D03*
X138938000Y-66929000D03*
%TD*%
D12*
%TO.C,U2*%
X156845000Y-81280000D03*
D13*
X154305000Y-81280000D03*
X151765000Y-81280000D03*
X149225000Y-81280000D03*
X146685000Y-81280000D03*
X144145000Y-81280000D03*
X141605000Y-81280000D03*
X139065000Y-81280000D03*
X136525000Y-81280000D03*
X133985000Y-81280000D03*
X131445000Y-81280000D03*
X128905000Y-81280000D03*
X126365000Y-81280000D03*
X123825000Y-81280000D03*
X121285000Y-81280000D03*
X118745000Y-81280000D03*
X118745000Y-96520000D03*
X121285000Y-96520000D03*
X123825000Y-96520000D03*
X126365000Y-96520000D03*
X128905000Y-96520000D03*
X131445000Y-96520000D03*
X133985000Y-96520000D03*
X136525000Y-96520000D03*
X139065000Y-96520000D03*
X141605000Y-96520000D03*
X144145000Y-96520000D03*
X146685000Y-96520000D03*
X149225000Y-96520000D03*
X151765000Y-96520000D03*
X154305000Y-96520000D03*
X156845000Y-96520000D03*
%TD*%
D12*
%TO.C,C10*%
X164846000Y-96099000D03*
D10*
X164846000Y-93599000D03*
%TD*%
D14*
%TO.C,J1*%
X119705000Y-124824000D03*
X122245000Y-124824000D03*
X124785000Y-124824000D03*
X127325000Y-124824000D03*
X129865000Y-124824000D03*
X132405000Y-124824000D03*
X134945000Y-124824000D03*
X137485000Y-124824000D03*
X140025000Y-124824000D03*
X142565000Y-124824000D03*
X145105000Y-124824000D03*
X147645000Y-124824000D03*
X150185000Y-124824000D03*
X152725000Y-124824000D03*
X155265000Y-124824000D03*
%TD*%
D11*
%TO.C,H1*%
X110363000Y-61214000D03*
%TD*%
M02*
