%TF.GenerationSoftware,KiCad,Pcbnew,7.0.11-7.0.11~ubuntu22.04.1*%
%TF.CreationDate,2024-10-25T18:54:13-04:00*%
%TF.ProjectId,colecovision_multicart,636f6c65-636f-4766-9973-696f6e5f6d75,rev?*%
%TF.SameCoordinates,Original*%
%TF.FileFunction,Other,User*%
%FSLAX46Y46*%
G04 Gerber Fmt 4.6, Leading zero omitted, Abs format (unit mm)*
G04 Created by KiCad (PCBNEW 7.0.11-7.0.11~ubuntu22.04.1) date 2024-10-25 18:54:13*
%MOMM*%
%LPD*%
G01*
G04 APERTURE LIST*
%ADD10C,0.050000*%
G04 APERTURE END LIST*
D10*
%TO.C,C4*%
X127679375Y-68017000D02*
X127679375Y-65917000D01*
X127679375Y-65917000D02*
X123079375Y-65917000D01*
X123079375Y-68017000D02*
X127679375Y-68017000D01*
X123079375Y-65917000D02*
X123079375Y-68017000D01*
%TO.C,C1*%
X158824800Y-107385200D02*
X161824800Y-107385200D01*
X161824800Y-107385200D02*
X161824800Y-100285200D01*
X158824800Y-100285200D02*
X158824800Y-107385200D01*
X161824800Y-100285200D02*
X158824800Y-100285200D01*
%TO.C,C2*%
X112294800Y-76231400D02*
X109294800Y-76231400D01*
X109294800Y-76231400D02*
X109294800Y-83331400D01*
X112294800Y-83331400D02*
X112294800Y-76231400D01*
X109294800Y-83331400D02*
X112294800Y-83331400D01*
%TO.C,H2*%
X170328000Y-61214000D02*
G75*
G03*
X163428000Y-61214000I-3450000J0D01*
G01*
X163428000Y-61214000D02*
G75*
G03*
X170328000Y-61214000I3450000J0D01*
G01*
%TO.C,Q1*%
X142457200Y-69971000D02*
X148017200Y-69971000D01*
X142457200Y-69971000D02*
X142457200Y-62871000D01*
X148017200Y-62871000D02*
X148017200Y-69971000D01*
X148017200Y-62871000D02*
X142457200Y-62871000D01*
%TO.C,R1*%
X142038200Y-62881800D02*
X139038200Y-62881800D01*
X139038200Y-62881800D02*
X139038200Y-72601800D01*
X142038200Y-72601800D02*
X142038200Y-62881800D01*
X139038200Y-72601800D02*
X142038200Y-72601800D01*
%TO.C,C5*%
X120293375Y-68017000D02*
X120293375Y-65917000D01*
X120293375Y-65917000D02*
X115693375Y-65917000D01*
X115693375Y-68017000D02*
X120293375Y-68017000D01*
X115693375Y-65917000D02*
X115693375Y-68017000D01*
%TO.C,R2*%
X159005400Y-62881800D02*
X156005400Y-62881800D01*
X156005400Y-62881800D02*
X156005400Y-72601800D01*
X159005400Y-72601800D02*
X159005400Y-62881800D01*
X156005400Y-72601800D02*
X159005400Y-72601800D01*
%TO.C,U2*%
X158318800Y-90085200D02*
X117118800Y-90085200D01*
X117118800Y-90085200D02*
X117118800Y-107435200D01*
X158318800Y-107435200D02*
X158318800Y-90085200D01*
X117118800Y-107435200D02*
X158318800Y-107435200D01*
%TO.C,H4*%
X170328000Y-112547400D02*
G75*
G03*
X163428000Y-112547400I-3450000J0D01*
G01*
X163428000Y-112547400D02*
G75*
G03*
X170328000Y-112547400I3450000J0D01*
G01*
%TO.C,C3*%
X139470000Y-82833400D02*
X142470000Y-82833400D01*
X142470000Y-82833400D02*
X142470000Y-75733400D01*
X139470000Y-75733400D02*
X139470000Y-82833400D01*
X142470000Y-75733400D02*
X139470000Y-75733400D01*
%TO.C,H1*%
X113813000Y-61214000D02*
G75*
G03*
X106913000Y-61214000I-3450000J0D01*
G01*
X106913000Y-61214000D02*
G75*
G03*
X113813000Y-61214000I3450000J0D01*
G01*
%TO.C,D1*%
X149416200Y-64171000D02*
X149416200Y-68671000D01*
X149416200Y-68671000D02*
X154266200Y-68671000D01*
X154266200Y-64171000D02*
X149416200Y-64171000D01*
X154266200Y-68671000D02*
X154266200Y-64171000D01*
%TO.C,H3*%
X113813000Y-112547400D02*
G75*
G03*
X106913000Y-112547400I-3450000J0D01*
G01*
X106913000Y-112547400D02*
G75*
G03*
X113813000Y-112547400I3450000J0D01*
G01*
%TO.C,U3*%
X114019975Y-84094400D02*
X137419975Y-84094400D01*
X137419975Y-84094400D02*
X137419975Y-74294400D01*
X114019975Y-74294400D02*
X114019975Y-84094400D01*
X137419975Y-74294400D02*
X114019975Y-74294400D01*
%TO.C,U1*%
X143052200Y-84183400D02*
X163902200Y-84183400D01*
X163902200Y-84183400D02*
X163902200Y-74383400D01*
X143052200Y-74383400D02*
X143052200Y-84183400D01*
X163902200Y-74383400D02*
X143052200Y-74383400D01*
%TO.C,Y1*%
X127763375Y-73831000D02*
X127763375Y-68231000D01*
X127763375Y-68231000D02*
X115663375Y-68231000D01*
X115663375Y-73831000D02*
X127763375Y-73831000D01*
X115663375Y-68231000D02*
X115663375Y-73831000D01*
%TD*%
M02*
