%TF.GenerationSoftware,KiCad,Pcbnew,7.0.11-7.0.11~ubuntu22.04.1*%
%TF.CreationDate,2024-12-01T20:58:25-05:00*%
%TF.ProjectId,colecovision_multicart,636f6c65-636f-4766-9973-696f6e5f6d75,rev?*%
%TF.SameCoordinates,Original*%
%TF.FileFunction,Soldermask,Top*%
%TF.FilePolarity,Negative*%
%FSLAX46Y46*%
G04 Gerber Fmt 4.6, Leading zero omitted, Abs format (unit mm)*
G04 Created by KiCad (PCBNEW 7.0.11-7.0.11~ubuntu22.04.1) date 2024-12-01 20:58:25*
%MOMM*%
%LPD*%
G01*
G04 APERTURE LIST*
%ADD10C,0.100000*%
%ADD11R,1.524000X9.906000*%
%ADD12C,1.600000*%
%ADD13C,6.400000*%
%ADD14R,1.500000X1.500000*%
%ADD15C,1.500000*%
%ADD16O,1.600000X1.600000*%
%ADD17R,1.600000X1.600000*%
%ADD18R,1.800000X1.800000*%
%ADD19C,1.800000*%
G04 APERTURE END LIST*
D10*
%TO.C,J1*%
X117419000Y-119871000D02*
X157551000Y-119871000D01*
X157551000Y-119871000D02*
X157551000Y-130031000D01*
X157551000Y-130031000D02*
X117419000Y-130031000D01*
X117419000Y-130031000D02*
X117419000Y-119871000D01*
G36*
X117419000Y-119871000D02*
G01*
X157551000Y-119871000D01*
X157551000Y-130031000D01*
X117419000Y-130031000D01*
X117419000Y-119871000D01*
G37*
%TD*%
D11*
%TO.C,J1*%
X119705000Y-124824000D03*
X122245000Y-124824000D03*
X124785000Y-124824000D03*
X127325000Y-124824000D03*
X129865000Y-124824000D03*
X132405000Y-124824000D03*
X134945000Y-124824000D03*
X137485000Y-124824000D03*
X140025000Y-124824000D03*
X142565000Y-124824000D03*
X145105000Y-124824000D03*
X147645000Y-124824000D03*
X150185000Y-124824000D03*
X152725000Y-124824000D03*
X155265000Y-124824000D03*
%TD*%
D12*
%TO.C,C4*%
X126629375Y-66967000D03*
X124129375Y-66967000D03*
%TD*%
%TO.C,C1*%
X160324800Y-106335200D03*
X160324800Y-101335200D03*
%TD*%
%TO.C,C2*%
X110794800Y-77281400D03*
X110794800Y-82281400D03*
%TD*%
D13*
%TO.C,H2*%
X166878000Y-61214000D03*
%TD*%
D14*
%TO.C,Q1*%
X146007200Y-68961000D03*
D15*
X143467200Y-66421000D03*
X146007200Y-63881000D03*
%TD*%
D12*
%TO.C,R1*%
X140538200Y-63931800D03*
D16*
X140538200Y-71551800D03*
%TD*%
D12*
%TO.C,C5*%
X119243375Y-66967000D03*
X116743375Y-66967000D03*
%TD*%
%TO.C,R2*%
X157505400Y-63931800D03*
D16*
X157505400Y-71551800D03*
%TD*%
D17*
%TO.C,U2*%
X156768800Y-91135200D03*
D16*
X154228800Y-91135200D03*
X151688800Y-91135200D03*
X149148800Y-91135200D03*
X146608800Y-91135200D03*
X144068800Y-91135200D03*
X141528800Y-91135200D03*
X138988800Y-91135200D03*
X136448800Y-91135200D03*
X133908800Y-91135200D03*
X131368800Y-91135200D03*
X128828800Y-91135200D03*
X126288800Y-91135200D03*
X123748800Y-91135200D03*
X121208800Y-91135200D03*
X118668800Y-91135200D03*
X118668800Y-106375200D03*
X121208800Y-106375200D03*
X123748800Y-106375200D03*
X126288800Y-106375200D03*
X128828800Y-106375200D03*
X131368800Y-106375200D03*
X133908800Y-106375200D03*
X136448800Y-106375200D03*
X138988800Y-106375200D03*
X141528800Y-106375200D03*
X144068800Y-106375200D03*
X146608800Y-106375200D03*
X149148800Y-106375200D03*
X151688800Y-106375200D03*
X154228800Y-106375200D03*
X156768800Y-106375200D03*
%TD*%
D13*
%TO.C,H4*%
X166878000Y-112547400D03*
%TD*%
D12*
%TO.C,C3*%
X140970000Y-81783400D03*
X140970000Y-76783400D03*
%TD*%
D13*
%TO.C,H1*%
X110363000Y-61214000D03*
%TD*%
D18*
%TO.C,D1*%
X150566200Y-66421000D03*
D19*
X153106200Y-66421000D03*
%TD*%
D13*
%TO.C,H3*%
X110363000Y-112547400D03*
%TD*%
D17*
%TO.C,U3*%
X115569975Y-82994400D03*
D16*
X118109975Y-82994400D03*
X120649975Y-82994400D03*
X123189975Y-82994400D03*
X125729975Y-82994400D03*
X128269975Y-82994400D03*
X130809975Y-82994400D03*
X133349975Y-82994400D03*
X135889975Y-82994400D03*
X135889975Y-75374400D03*
X133349975Y-75374400D03*
X130809975Y-75374400D03*
X128269975Y-75374400D03*
X125729975Y-75374400D03*
X123189975Y-75374400D03*
X120649975Y-75374400D03*
X118109975Y-75374400D03*
X115569975Y-75374400D03*
%TD*%
D17*
%TO.C,U1*%
X144602200Y-83083400D03*
D16*
X147142200Y-83083400D03*
X149682200Y-83083400D03*
X152222200Y-83083400D03*
X154762200Y-83083400D03*
X157302200Y-83083400D03*
X159842200Y-83083400D03*
X162382200Y-83083400D03*
X162382200Y-75463400D03*
X159842200Y-75463400D03*
X157302200Y-75463400D03*
X154762200Y-75463400D03*
X152222200Y-75463400D03*
X149682200Y-75463400D03*
X147142200Y-75463400D03*
X144602200Y-75463400D03*
%TD*%
D15*
%TO.C,Y1*%
X124163375Y-71031000D03*
X119283375Y-71031000D03*
%TD*%
M02*
