%TF.GenerationSoftware,KiCad,Pcbnew,7.0.11-7.0.11~ubuntu22.04.1*%
%TF.CreationDate,2024-08-09T11:46:46-04:00*%
%TF.ProjectId,colecovision_standard_cart,636f6c65-636f-4766-9973-696f6e5f7374,rev?*%
%TF.SameCoordinates,Original*%
%TF.FileFunction,Copper,L1,Top*%
%TF.FilePolarity,Positive*%
%FSLAX46Y46*%
G04 Gerber Fmt 4.6, Leading zero omitted, Abs format (unit mm)*
G04 Created by KiCad (PCBNEW 7.0.11-7.0.11~ubuntu22.04.1) date 2024-08-09 11:46:46*
%MOMM*%
%LPD*%
G01*
G04 APERTURE LIST*
%TA.AperFunction,ComponentPad*%
%ADD10C,1.600000*%
%TD*%
%TA.AperFunction,ComponentPad*%
%ADD11C,6.400000*%
%TD*%
%TA.AperFunction,ComponentPad*%
%ADD12R,1.600000X1.600000*%
%TD*%
%TA.AperFunction,ComponentPad*%
%ADD13O,1.600000X1.600000*%
%TD*%
%TA.AperFunction,ConnectorPad*%
%ADD14R,1.524000X9.906000*%
%TD*%
%TA.AperFunction,ViaPad*%
%ADD15C,1.117600*%
%TD*%
%TA.AperFunction,Conductor*%
%ADD16C,0.508000*%
%TD*%
%TA.AperFunction,Conductor*%
%ADD17C,0.304800*%
%TD*%
G04 APERTURE END LIST*
D10*
%TO.P,C1,1*%
%TO.N,+5V*%
X160401000Y-96480000D03*
%TO.P,C1,2*%
%TO.N,GNDD*%
X160401000Y-91480000D03*
%TD*%
%TO.P,C2,1*%
%TO.N,+5V*%
X135763000Y-73366000D03*
%TO.P,C2,2*%
%TO.N,GNDD*%
X135763000Y-68366000D03*
%TD*%
D11*
%TO.P,H2,1*%
%TO.N,N/C*%
X166878000Y-61214000D03*
%TD*%
D12*
%TO.P,U1,1,I4*%
%TO.N,+5V*%
X138938000Y-74549000D03*
D13*
%TO.P,U1,2,I5*%
X141478000Y-74549000D03*
%TO.P,U1,3,I6*%
X144018000Y-74549000D03*
%TO.P,U1,4,I7*%
X146558000Y-74549000D03*
%TO.P,U1,5,EI*%
%TO.N,GNDD*%
X149098000Y-74549000D03*
%TO.P,U1,6,S2*%
%TO.N,unconnected-(U1-S2-Pad6)*%
X151638000Y-74549000D03*
%TO.P,U1,7,S1*%
%TO.N,Net-(U1-S1)*%
X154178000Y-74549000D03*
%TO.P,U1,8,GND*%
%TO.N,GNDD*%
X156718000Y-74549000D03*
%TO.P,U1,9,S0*%
%TO.N,Net-(U1-S0)*%
X156718000Y-66929000D03*
%TO.P,U1,10,IO*%
%TO.N,/~{CS_h8000}*%
X154178000Y-66929000D03*
%TO.P,U1,11,I1*%
%TO.N,/~{CS_hA000}*%
X151638000Y-66929000D03*
%TO.P,U1,12,I2*%
%TO.N,/~{CS_hC000}*%
X149098000Y-66929000D03*
%TO.P,U1,13,I3*%
%TO.N,/~{CS_hE000}*%
X146558000Y-66929000D03*
%TO.P,U1,14,GS*%
%TO.N,Net-(U1-GS)*%
X144018000Y-66929000D03*
%TO.P,U1,15,EO*%
%TO.N,unconnected-(U1-EO-Pad15)*%
X141478000Y-66929000D03*
%TO.P,U1,16,VCC*%
%TO.N,+5V*%
X138938000Y-66929000D03*
%TD*%
D12*
%TO.P,U2,1,NC*%
%TO.N,GNDD*%
X156845000Y-81280000D03*
D13*
%TO.P,U2,2,A16*%
%TO.N,Net-(U1-S1)*%
X154305000Y-81280000D03*
%TO.P,U2,3,A15*%
%TO.N,Net-(U1-S0)*%
X151765000Y-81280000D03*
%TO.P,U2,4,A12*%
%TO.N,/A12*%
X149225000Y-81280000D03*
%TO.P,U2,5,A7*%
%TO.N,/A7*%
X146685000Y-81280000D03*
%TO.P,U2,6,A6*%
%TO.N,/A6*%
X144145000Y-81280000D03*
%TO.P,U2,7,A5*%
%TO.N,/A5*%
X141605000Y-81280000D03*
%TO.P,U2,8,A4*%
%TO.N,/A4*%
X139065000Y-81280000D03*
%TO.P,U2,9,A3*%
%TO.N,/A3*%
X136525000Y-81280000D03*
%TO.P,U2,10,A2*%
%TO.N,/A2*%
X133985000Y-81280000D03*
%TO.P,U2,11,A1*%
%TO.N,/A1*%
X131445000Y-81280000D03*
%TO.P,U2,12,A0*%
%TO.N,/A0*%
X128905000Y-81280000D03*
%TO.P,U2,13,D0*%
%TO.N,/D0*%
X126365000Y-81280000D03*
%TO.P,U2,14,D1*%
%TO.N,/D1*%
X123825000Y-81280000D03*
%TO.P,U2,15,D2*%
%TO.N,/D2*%
X121285000Y-81280000D03*
%TO.P,U2,16,GND*%
%TO.N,GNDD*%
X118745000Y-81280000D03*
%TO.P,U2,17,D3*%
%TO.N,/D3*%
X118745000Y-96520000D03*
%TO.P,U2,18,D4*%
%TO.N,/D4*%
X121285000Y-96520000D03*
%TO.P,U2,19,D5*%
%TO.N,/D5*%
X123825000Y-96520000D03*
%TO.P,U2,20,D6*%
%TO.N,/D6*%
X126365000Y-96520000D03*
%TO.P,U2,21,D7*%
%TO.N,/D7*%
X128905000Y-96520000D03*
%TO.P,U2,22,CE*%
%TO.N,Net-(U1-GS)*%
X131445000Y-96520000D03*
%TO.P,U2,23,A10*%
%TO.N,/A10*%
X133985000Y-96520000D03*
%TO.P,U2,24,OE*%
%TO.N,Net-(U1-GS)*%
X136525000Y-96520000D03*
%TO.P,U2,25,A11*%
%TO.N,/A11*%
X139065000Y-96520000D03*
%TO.P,U2,26,A9*%
%TO.N,/A9*%
X141605000Y-96520000D03*
%TO.P,U2,27,A8*%
%TO.N,/A8*%
X144145000Y-96520000D03*
%TO.P,U2,28,A13*%
%TO.N,/A13*%
X146685000Y-96520000D03*
%TO.P,U2,29,A14*%
%TO.N,/A14*%
X149225000Y-96520000D03*
%TO.P,U2,30,NC*%
%TO.N,GNDD*%
X151765000Y-96520000D03*
%TO.P,U2,31,PGM*%
%TO.N,+5V*%
X154305000Y-96520000D03*
%TO.P,U2,32,VCC*%
X156845000Y-96520000D03*
%TD*%
D12*
%TO.P,C10,1*%
%TO.N,+5V*%
X164846000Y-96099000D03*
D10*
%TO.P,C10,2*%
%TO.N,GNDD*%
X164846000Y-93599000D03*
%TD*%
D14*
%TO.P,J1,2,Pin_2*%
%TO.N,/~{CS_hC000}*%
X119705000Y-124824000D03*
%TO.P,J1,4,Pin_4*%
%TO.N,/D3*%
X122245000Y-124824000D03*
%TO.P,J1,6,Pin_6*%
%TO.N,/D4*%
X124785000Y-124824000D03*
%TO.P,J1,8,Pin_8*%
%TO.N,/D5*%
X127325000Y-124824000D03*
%TO.P,J1,10,Pin_10*%
%TO.N,/D6*%
X129865000Y-124824000D03*
%TO.P,J1,12,Pin_12*%
%TO.N,/D7*%
X132405000Y-124824000D03*
%TO.P,J1,14,Pin_14*%
%TO.N,/A11*%
X134945000Y-124824000D03*
%TO.P,J1,16,Pin_16*%
%TO.N,/A10*%
X137485000Y-124824000D03*
%TO.P,J1,18,Pin_18*%
%TO.N,/~{CS_h8000}*%
X140025000Y-124824000D03*
%TO.P,J1,20,Pin_20*%
%TO.N,/A14*%
X142565000Y-124824000D03*
%TO.P,J1,22,Pin_22*%
%TO.N,/~{CS_hA000}*%
X145105000Y-124824000D03*
%TO.P,J1,24,Pin_24*%
%TO.N,/A12*%
X147645000Y-124824000D03*
%TO.P,J1,26,Pin_26*%
%TO.N,/A9*%
X150185000Y-124824000D03*
%TO.P,J1,28,Pin_28*%
%TO.N,/A8*%
X152725000Y-124824000D03*
%TO.P,J1,30,Pin_30*%
%TO.N,+5V*%
X155265000Y-124824000D03*
%TD*%
D11*
%TO.P,H1,1*%
%TO.N,N/C*%
X110363000Y-61214000D03*
%TD*%
D15*
%TO.N,GNDD*%
X151688800Y-84632800D03*
%TO.N,/A9*%
X150241000Y-104140000D03*
X146558000Y-104140000D03*
%TO.N,/A8*%
X146558000Y-100203000D03*
X150368000Y-100203000D03*
%TD*%
D16*
%TO.N,+5V*%
X160401000Y-96480000D02*
X164465000Y-96480000D01*
X156845000Y-110490000D02*
X156845000Y-96520000D01*
X156885000Y-96480000D02*
X156845000Y-96520000D01*
X155265000Y-124824000D02*
X155265000Y-112070000D01*
X155265000Y-112070000D02*
X156845000Y-110490000D01*
X138938000Y-74549000D02*
X146558000Y-74549000D01*
X138938000Y-74549000D02*
X138938000Y-66929000D01*
X164465000Y-96480000D02*
X164846000Y-96099000D01*
X160401000Y-96480000D02*
X156885000Y-96480000D01*
D17*
%TO.N,/~{CS_hC000}*%
X109728000Y-105791000D02*
X109728000Y-83464400D01*
X146862800Y-63550800D02*
X149098000Y-65786000D01*
X129641600Y-63550800D02*
X146862800Y-63550800D01*
X119705000Y-124824000D02*
X119705000Y-115768000D01*
X109728000Y-83464400D02*
X129641600Y-63550800D01*
X149098000Y-65786000D02*
X149098000Y-66929000D01*
X119705000Y-115768000D02*
X109728000Y-105791000D01*
%TO.N,/D3*%
X122245000Y-124824000D02*
X122245000Y-107894000D01*
X118745000Y-104394000D02*
X118745000Y-96520000D01*
X122245000Y-107894000D02*
X118745000Y-104394000D01*
%TO.N,/D4*%
X121285000Y-104140000D02*
X121285000Y-96520000D01*
X124785000Y-124824000D02*
X124785000Y-107640000D01*
X124785000Y-107640000D02*
X121285000Y-104140000D01*
%TO.N,/D5*%
X123825000Y-103251000D02*
X123825000Y-96520000D01*
X127325000Y-124824000D02*
X127325000Y-106751000D01*
X127325000Y-106751000D02*
X123825000Y-103251000D01*
%TO.N,/D6*%
X129865000Y-124824000D02*
X129865000Y-106497000D01*
X129865000Y-106497000D02*
X126365000Y-102997000D01*
X126365000Y-102997000D02*
X126365000Y-96520000D01*
%TO.N,/D7*%
X128905000Y-102108000D02*
X128905000Y-96520000D01*
X132405000Y-124824000D02*
X132405000Y-105608000D01*
X132405000Y-105608000D02*
X128905000Y-102108000D01*
%TO.N,/A11*%
X138049000Y-93980000D02*
X139065000Y-94996000D01*
X132727800Y-98422800D02*
X132727800Y-94729200D01*
X133477000Y-93980000D02*
X138049000Y-93980000D01*
X139065000Y-94996000D02*
X139065000Y-96520000D01*
X134945000Y-100640000D02*
X132727800Y-98422800D01*
X134945000Y-124824000D02*
X134945000Y-100640000D01*
X132727800Y-94729200D02*
X133477000Y-93980000D01*
%TO.N,/A10*%
X137485000Y-100020000D02*
X137485000Y-124824000D01*
X133985000Y-96520000D02*
X137485000Y-100020000D01*
%TO.N,/~{CS_h8000}*%
X150368000Y-66141600D02*
X151180800Y-65328800D01*
X140322200Y-80784850D02*
X145224650Y-75882400D01*
X140025000Y-124824000D02*
X140322200Y-124526800D01*
X151180800Y-65328800D02*
X152577800Y-65328800D01*
X147383600Y-75882400D02*
X147840800Y-75425200D01*
X147840800Y-71488200D02*
X150368000Y-68961000D01*
X150368000Y-68961000D02*
X150368000Y-66141600D01*
X145224650Y-75882400D02*
X147383600Y-75882400D01*
X140322200Y-124526800D02*
X140322200Y-80784850D01*
X152577800Y-65328800D02*
X154178000Y-66929000D01*
X147840800Y-75425200D02*
X147840800Y-71488200D01*
%TO.N,/A14*%
X142862200Y-124526800D02*
X142862200Y-117106800D01*
X142862200Y-117106800D02*
X147574000Y-112395000D01*
X147574000Y-112395000D02*
X147574000Y-98171000D01*
X142565000Y-124824000D02*
X142862200Y-124526800D01*
X147574000Y-98171000D02*
X149225000Y-96520000D01*
%TO.N,/~{CS_hA000}*%
X151638000Y-68553104D02*
X151638000Y-66929000D01*
X148437600Y-113690400D02*
X148437600Y-99110950D01*
X150482200Y-84569200D02*
X147955000Y-82042000D01*
X147955000Y-77597000D02*
X150380800Y-75171200D01*
X150482200Y-97066350D02*
X150482200Y-84569200D01*
X148437600Y-99110950D02*
X150482200Y-97066350D01*
X147955000Y-82042000D02*
X147955000Y-77597000D01*
X145105000Y-117023000D02*
X148437600Y-113690400D01*
X145105000Y-124824000D02*
X145105000Y-117023000D01*
X150380800Y-69810304D02*
X151638000Y-68553104D01*
X150380800Y-75171200D02*
X150380800Y-69810304D01*
%TO.N,/A12*%
X149225000Y-99909159D02*
X149947159Y-99187000D01*
X147645000Y-116769000D02*
X149225000Y-115189000D01*
X149860000Y-81280000D02*
X149225000Y-81280000D01*
X149225000Y-115189000D02*
X149225000Y-99909159D01*
X153047800Y-97040750D02*
X153047800Y-84467800D01*
X153047800Y-84467800D02*
X149860000Y-81280000D01*
X150901550Y-99187000D02*
X153047800Y-97040750D01*
X147645000Y-124824000D02*
X147645000Y-116769000D01*
X149947159Y-99187000D02*
X150901550Y-99187000D01*
%TO.N,/A9*%
X150185000Y-124824000D02*
X150185000Y-104196000D01*
X141605000Y-99187000D02*
X141605000Y-96520000D01*
X150185000Y-104196000D02*
X150241000Y-104140000D01*
X146558000Y-104140000D02*
X141605000Y-99187000D01*
%TO.N,/A8*%
X152725000Y-124824000D02*
X152725000Y-102560000D01*
X152725000Y-102560000D02*
X150368000Y-100203000D01*
X146558000Y-100203000D02*
X144145000Y-97790000D01*
X144145000Y-97790000D02*
X144145000Y-96520000D01*
%TO.N,Net-(U1-S1)*%
X154178000Y-81153000D02*
X154305000Y-81280000D01*
X154178000Y-74549000D02*
X154178000Y-81153000D01*
%TO.N,Net-(U1-S0)*%
X152920800Y-70726200D02*
X152920800Y-80124200D01*
X156718000Y-66929000D02*
X152920800Y-70726200D01*
X152920800Y-80124200D02*
X151765000Y-81280000D01*
%TD*%
%TA.AperFunction,Conductor*%
%TO.N,GNDD*%
G36*
X172392976Y-55519002D02*
G01*
X172439469Y-55572658D01*
X172450853Y-55624443D01*
X172537814Y-75320900D01*
X172719441Y-116459444D01*
X172699740Y-116527652D01*
X172646290Y-116574381D01*
X172593442Y-116586000D01*
X157480000Y-116586000D01*
X157480000Y-116714000D01*
X157459998Y-116782121D01*
X157406342Y-116828614D01*
X157354000Y-116840000D01*
X156153500Y-116840000D01*
X156085379Y-116819998D01*
X156038886Y-116766342D01*
X156027500Y-116714000D01*
X156027500Y-112438027D01*
X156047502Y-112369906D01*
X156064405Y-112348932D01*
X156677283Y-111736054D01*
X157338401Y-111074935D01*
X157352240Y-111062975D01*
X157371822Y-111048398D01*
X157404177Y-111009836D01*
X157411596Y-111001740D01*
X157415573Y-110997765D01*
X157435149Y-110973004D01*
X157437395Y-110970249D01*
X157486396Y-110911853D01*
X157486396Y-110911851D01*
X157486399Y-110911849D01*
X157490430Y-110905720D01*
X157490483Y-110905755D01*
X157494595Y-110899300D01*
X157494541Y-110899267D01*
X157498387Y-110893029D01*
X157498395Y-110893020D01*
X157530630Y-110823889D01*
X157532166Y-110820715D01*
X157566394Y-110752566D01*
X157566395Y-110752560D01*
X157566397Y-110752557D01*
X157568908Y-110745661D01*
X157568966Y-110745682D01*
X157571475Y-110738462D01*
X157571416Y-110738443D01*
X157573723Y-110731479D01*
X157573723Y-110731477D01*
X157573725Y-110731474D01*
X157589148Y-110656772D01*
X157589920Y-110653296D01*
X157607500Y-110579123D01*
X157607500Y-110579115D01*
X157608352Y-110571834D01*
X157608412Y-110571841D01*
X157609190Y-110564226D01*
X157609129Y-110564221D01*
X157609767Y-110556917D01*
X157609769Y-110556909D01*
X157607553Y-110480745D01*
X157607500Y-110477081D01*
X157607500Y-97649066D01*
X157627502Y-97580945D01*
X157661231Y-97545852D01*
X157689300Y-97526198D01*
X157851198Y-97364300D01*
X157898862Y-97296228D01*
X157954319Y-97251901D01*
X158002075Y-97242500D01*
X159271933Y-97242500D01*
X159340054Y-97262502D01*
X159375146Y-97296229D01*
X159394802Y-97324300D01*
X159556700Y-97486198D01*
X159744251Y-97617523D01*
X159951757Y-97714284D01*
X160172913Y-97773543D01*
X160401000Y-97793498D01*
X160629087Y-97773543D01*
X160850243Y-97714284D01*
X161057749Y-97617523D01*
X161245300Y-97486198D01*
X161407198Y-97324300D01*
X161426854Y-97296229D01*
X161482312Y-97251900D01*
X161530067Y-97242500D01*
X163614404Y-97242500D01*
X163682525Y-97262502D01*
X163689913Y-97267632D01*
X163799792Y-97349887D01*
X163799794Y-97349888D01*
X163799796Y-97349889D01*
X163858875Y-97371924D01*
X163936795Y-97400988D01*
X163936803Y-97400990D01*
X163997350Y-97407499D01*
X163997355Y-97407499D01*
X163997362Y-97407500D01*
X163997368Y-97407500D01*
X165694632Y-97407500D01*
X165694638Y-97407500D01*
X165694645Y-97407499D01*
X165694649Y-97407499D01*
X165755196Y-97400990D01*
X165755199Y-97400989D01*
X165755201Y-97400989D01*
X165892204Y-97349889D01*
X165926394Y-97324295D01*
X166009261Y-97262261D01*
X166096887Y-97145207D01*
X166096887Y-97145206D01*
X166096889Y-97145204D01*
X166147989Y-97008201D01*
X166152178Y-96969243D01*
X166154499Y-96947649D01*
X166154500Y-96947632D01*
X166154500Y-95250367D01*
X166154499Y-95250350D01*
X166147990Y-95189803D01*
X166147988Y-95189795D01*
X166118924Y-95111875D01*
X166096889Y-95052796D01*
X166096888Y-95052794D01*
X166096887Y-95052792D01*
X166009261Y-94935738D01*
X165892207Y-94848112D01*
X165892202Y-94848110D01*
X165755204Y-94797011D01*
X165755196Y-94797009D01*
X165694649Y-94790500D01*
X165694638Y-94790500D01*
X163997362Y-94790500D01*
X163997350Y-94790500D01*
X163936803Y-94797009D01*
X163936795Y-94797011D01*
X163799797Y-94848110D01*
X163799792Y-94848112D01*
X163682738Y-94935738D01*
X163595112Y-95052792D01*
X163595110Y-95052797D01*
X163544011Y-95189795D01*
X163544009Y-95189803D01*
X163537500Y-95250350D01*
X163537500Y-95591500D01*
X163517498Y-95659621D01*
X163463842Y-95706114D01*
X163411500Y-95717500D01*
X161530067Y-95717500D01*
X161461946Y-95697498D01*
X161426854Y-95663771D01*
X161419622Y-95653444D01*
X161407198Y-95635700D01*
X161245300Y-95473802D01*
X161174018Y-95423890D01*
X161057749Y-95342477D01*
X160850246Y-95245717D01*
X160850240Y-95245715D01*
X160703895Y-95206502D01*
X160629087Y-95186457D01*
X160401000Y-95166502D01*
X160172913Y-95186457D01*
X159951759Y-95245715D01*
X159951753Y-95245717D01*
X159744250Y-95342477D01*
X159556703Y-95473799D01*
X159556697Y-95473804D01*
X159394804Y-95635697D01*
X159394799Y-95635704D01*
X159375146Y-95663771D01*
X159319688Y-95708100D01*
X159271933Y-95717500D01*
X157945027Y-95717500D01*
X157876906Y-95697498D01*
X157855781Y-95678896D01*
X157855088Y-95679590D01*
X157811195Y-95635697D01*
X157689300Y-95513802D01*
X157501749Y-95382477D01*
X157294246Y-95285717D01*
X157294240Y-95285715D01*
X157200771Y-95260670D01*
X157073087Y-95226457D01*
X156845000Y-95206502D01*
X156616913Y-95226457D01*
X156395759Y-95285715D01*
X156395753Y-95285717D01*
X156188250Y-95382477D01*
X156000703Y-95513799D01*
X156000697Y-95513804D01*
X155838804Y-95675697D01*
X155838799Y-95675703D01*
X155707477Y-95863250D01*
X155689195Y-95902457D01*
X155642278Y-95955742D01*
X155574001Y-95975203D01*
X155506041Y-95954661D01*
X155460805Y-95902457D01*
X155458894Y-95898359D01*
X155442523Y-95863251D01*
X155311198Y-95675700D01*
X155149300Y-95513802D01*
X154961749Y-95382477D01*
X154754246Y-95285717D01*
X154754240Y-95285715D01*
X154660771Y-95260670D01*
X154533087Y-95226457D01*
X154305000Y-95206502D01*
X154076913Y-95226457D01*
X153867311Y-95282620D01*
X153796335Y-95280930D01*
X153737539Y-95241136D01*
X153709591Y-95175871D01*
X153708700Y-95160913D01*
X153708700Y-84491581D01*
X153708930Y-84483973D01*
X153709793Y-84469703D01*
X153712340Y-84427603D01*
X153702151Y-84372011D01*
X153701016Y-84364552D01*
X153694208Y-84308475D01*
X153691106Y-84300298D01*
X153684985Y-84278338D01*
X153683409Y-84269736D01*
X153660229Y-84218234D01*
X153657328Y-84211231D01*
X153637296Y-84158409D01*
X153632329Y-84151213D01*
X153621124Y-84131346D01*
X153617539Y-84123380D01*
X153617536Y-84123376D01*
X153582718Y-84078935D01*
X153578221Y-84072824D01*
X153546124Y-84026323D01*
X153503837Y-83988860D01*
X153498296Y-83983643D01*
X152215108Y-82700455D01*
X152181082Y-82638143D01*
X152186147Y-82567328D01*
X152228694Y-82510492D01*
X152250950Y-82497167D01*
X152421749Y-82417523D01*
X152609300Y-82286198D01*
X152771198Y-82124300D01*
X152902523Y-81936749D01*
X152920805Y-81897543D01*
X152967721Y-81844258D01*
X153035998Y-81824796D01*
X153103958Y-81845337D01*
X153149195Y-81897543D01*
X153167477Y-81936749D01*
X153298802Y-82124300D01*
X153460700Y-82286198D01*
X153648251Y-82417523D01*
X153855757Y-82514284D01*
X154076913Y-82573543D01*
X154305000Y-82593498D01*
X154533087Y-82573543D01*
X154754243Y-82514284D01*
X154961749Y-82417523D01*
X155149300Y-82286198D01*
X155311198Y-82124300D01*
X155442523Y-81936749D01*
X155539284Y-81729243D01*
X155598543Y-81508087D01*
X155618498Y-81280000D01*
X155598543Y-81051913D01*
X155539284Y-80830757D01*
X155442523Y-80623251D01*
X155311198Y-80435700D01*
X155149300Y-80273802D01*
X155149296Y-80273799D01*
X155149291Y-80273795D01*
X154961749Y-80142477D01*
X154961741Y-80142473D01*
X154911649Y-80119114D01*
X154858365Y-80072197D01*
X154838900Y-80004920D01*
X154838900Y-75749207D01*
X154858902Y-75681086D01*
X154892630Y-75645994D01*
X154938349Y-75613981D01*
X155022300Y-75555198D01*
X155184198Y-75393300D01*
X155315523Y-75205749D01*
X155412284Y-74998243D01*
X155471543Y-74777087D01*
X155491498Y-74549000D01*
X155471543Y-74320913D01*
X155412284Y-74099757D01*
X155315523Y-73892251D01*
X155184198Y-73704700D01*
X155022300Y-73542802D01*
X154834749Y-73411477D01*
X154627246Y-73314717D01*
X154627240Y-73314715D01*
X154460869Y-73270136D01*
X154406087Y-73255457D01*
X154178000Y-73235502D01*
X153949913Y-73255457D01*
X153740311Y-73311620D01*
X153669335Y-73309930D01*
X153610539Y-73270136D01*
X153582591Y-73204871D01*
X153581700Y-73189913D01*
X153581700Y-71052143D01*
X153601702Y-70984022D01*
X153618605Y-70963048D01*
X154534502Y-70047151D01*
X156335314Y-68246338D01*
X156397624Y-68212314D01*
X156457014Y-68213727D01*
X156489913Y-68222543D01*
X156718000Y-68242498D01*
X156946087Y-68222543D01*
X157167243Y-68163284D01*
X157374749Y-68066523D01*
X157562300Y-67935198D01*
X157724198Y-67773300D01*
X157855523Y-67585749D01*
X157952284Y-67378243D01*
X158011543Y-67157087D01*
X158031498Y-66929000D01*
X158011543Y-66700913D01*
X157952284Y-66479757D01*
X157855523Y-66272251D01*
X157724198Y-66084700D01*
X157562300Y-65922802D01*
X157490881Y-65872794D01*
X157374749Y-65791477D01*
X157167246Y-65694717D01*
X157167240Y-65694715D01*
X156972666Y-65642579D01*
X156946087Y-65635457D01*
X156718000Y-65615502D01*
X156489913Y-65635457D01*
X156268759Y-65694715D01*
X156268753Y-65694717D01*
X156061250Y-65791477D01*
X155873703Y-65922799D01*
X155873697Y-65922804D01*
X155711804Y-66084697D01*
X155711799Y-66084703D01*
X155580477Y-66272250D01*
X155562195Y-66311457D01*
X155515278Y-66364742D01*
X155447001Y-66384203D01*
X155379041Y-66363661D01*
X155333805Y-66311457D01*
X155331894Y-66307359D01*
X155315523Y-66272251D01*
X155184198Y-66084700D01*
X155022300Y-65922802D01*
X154950881Y-65872794D01*
X154834749Y-65791477D01*
X154627246Y-65694717D01*
X154627240Y-65694715D01*
X154432666Y-65642579D01*
X154406087Y-65635457D01*
X154178000Y-65615502D01*
X153949913Y-65635457D01*
X153949910Y-65635457D01*
X153949907Y-65635458D01*
X153949904Y-65635458D01*
X153917017Y-65644270D01*
X153846040Y-65642579D01*
X153795313Y-65611659D01*
X153061948Y-64878295D01*
X153056730Y-64872752D01*
X153033418Y-64846438D01*
X153019277Y-64830476D01*
X152972773Y-64798376D01*
X152966657Y-64793875D01*
X152922220Y-64759061D01*
X152914246Y-64755472D01*
X152894387Y-64744271D01*
X152887191Y-64739304D01*
X152887189Y-64739303D01*
X152834390Y-64719278D01*
X152827362Y-64716367D01*
X152775869Y-64693193D01*
X152775861Y-64693190D01*
X152770396Y-64692189D01*
X152767260Y-64691614D01*
X152745295Y-64685490D01*
X152737124Y-64682391D01*
X152681074Y-64675585D01*
X152673552Y-64674440D01*
X152617999Y-64664260D01*
X152617997Y-64664260D01*
X152565316Y-64667446D01*
X152561626Y-64667670D01*
X152554018Y-64667900D01*
X151204582Y-64667900D01*
X151196974Y-64667670D01*
X151194458Y-64667517D01*
X151140603Y-64664260D01*
X151140602Y-64664260D01*
X151140600Y-64664260D01*
X151140599Y-64664260D01*
X151085045Y-64674440D01*
X151077524Y-64675585D01*
X151021476Y-64682391D01*
X151013293Y-64685494D01*
X150991343Y-64691613D01*
X150982733Y-64693191D01*
X150931246Y-64716363D01*
X150924220Y-64719273D01*
X150871412Y-64739302D01*
X150871400Y-64739308D01*
X150864201Y-64744277D01*
X150844361Y-64755467D01*
X150836388Y-64759056D01*
X150836373Y-64759065D01*
X150791923Y-64793887D01*
X150785800Y-64798393D01*
X150739322Y-64830476D01*
X150701884Y-64872735D01*
X150696668Y-64878276D01*
X149941194Y-65633751D01*
X149878881Y-65667776D01*
X149808066Y-65662712D01*
X149751230Y-65620165D01*
X149738025Y-65594308D01*
X149736738Y-65594888D01*
X149710435Y-65536447D01*
X149707528Y-65529431D01*
X149687496Y-65476609D01*
X149682529Y-65469413D01*
X149671324Y-65449546D01*
X149667739Y-65441580D01*
X149667736Y-65441576D01*
X149632918Y-65397135D01*
X149628421Y-65391024D01*
X149596324Y-65344523D01*
X149554037Y-65307060D01*
X149548496Y-65301843D01*
X147346956Y-63100303D01*
X147341738Y-63094761D01*
X147320506Y-63070795D01*
X147304277Y-63052476D01*
X147257773Y-63020376D01*
X147251657Y-63015875D01*
X147207220Y-62981061D01*
X147199246Y-62977472D01*
X147179387Y-62966271D01*
X147172192Y-62961305D01*
X147172191Y-62961304D01*
X147172189Y-62961303D01*
X147119390Y-62941278D01*
X147112362Y-62938367D01*
X147060869Y-62915193D01*
X147060861Y-62915190D01*
X147055396Y-62914189D01*
X147052260Y-62913614D01*
X147030295Y-62907490D01*
X147022124Y-62904391D01*
X146966074Y-62897585D01*
X146958552Y-62896440D01*
X146902999Y-62886260D01*
X146902997Y-62886260D01*
X146850316Y-62889446D01*
X146846626Y-62889670D01*
X146839018Y-62889900D01*
X129665382Y-62889900D01*
X129657774Y-62889670D01*
X129655258Y-62889517D01*
X129601403Y-62886260D01*
X129601402Y-62886260D01*
X129601400Y-62886260D01*
X129601399Y-62886260D01*
X129545845Y-62896440D01*
X129538324Y-62897585D01*
X129482276Y-62904391D01*
X129474093Y-62907494D01*
X129452143Y-62913613D01*
X129443533Y-62915191D01*
X129392046Y-62938363D01*
X129385020Y-62941273D01*
X129332212Y-62961302D01*
X129332207Y-62961305D01*
X129325006Y-62966275D01*
X129305156Y-62977470D01*
X129297184Y-62981058D01*
X129297180Y-62981060D01*
X129297180Y-62981061D01*
X129252743Y-63015875D01*
X129252735Y-63015881D01*
X129246608Y-63020389D01*
X129200121Y-63052477D01*
X129162660Y-63094761D01*
X129157444Y-63100301D01*
X109277501Y-82980244D01*
X109271961Y-82985460D01*
X109229677Y-83022921D01*
X109197589Y-83069408D01*
X109193081Y-83075535D01*
X109158258Y-83119984D01*
X109154670Y-83127956D01*
X109143475Y-83147806D01*
X109138505Y-83155007D01*
X109138502Y-83155012D01*
X109118473Y-83207820D01*
X109115563Y-83214846D01*
X109092391Y-83266333D01*
X109090813Y-83274943D01*
X109084694Y-83296893D01*
X109081591Y-83305076D01*
X109074785Y-83361124D01*
X109073640Y-83368645D01*
X109063460Y-83424199D01*
X109063460Y-83424200D01*
X109066870Y-83480573D01*
X109067100Y-83488181D01*
X109067100Y-105767217D01*
X109066870Y-105774825D01*
X109063460Y-105831197D01*
X109073640Y-105886752D01*
X109074785Y-105894274D01*
X109081591Y-105950324D01*
X109084690Y-105958495D01*
X109090815Y-105980463D01*
X109092390Y-105989061D01*
X109092393Y-105989069D01*
X109115567Y-106040562D01*
X109118478Y-106047590D01*
X109138503Y-106100389D01*
X109138503Y-106100390D01*
X109143471Y-106107587D01*
X109154672Y-106127446D01*
X109158261Y-106135420D01*
X109193075Y-106179857D01*
X109197576Y-106185973D01*
X109229676Y-106232477D01*
X109271526Y-106269553D01*
X109271961Y-106269938D01*
X109277503Y-106275156D01*
X119007195Y-116004848D01*
X119041221Y-116067160D01*
X119044100Y-116093943D01*
X119044100Y-116714000D01*
X119024098Y-116782121D01*
X118970442Y-116828614D01*
X118918100Y-116840000D01*
X117728000Y-116840000D01*
X117659879Y-116819998D01*
X117613386Y-116766342D01*
X117602000Y-116714000D01*
X117602000Y-116586000D01*
X103249445Y-116586000D01*
X103181324Y-116565998D01*
X103134831Y-116512342D01*
X103123446Y-116460556D01*
X103123322Y-116432556D01*
X102879532Y-61214006D01*
X106649411Y-61214006D01*
X106669752Y-61602167D01*
X106730561Y-61986097D01*
X106831168Y-62361568D01*
X106970463Y-62724443D01*
X106970467Y-62724451D01*
X107146938Y-63070795D01*
X107358637Y-63396785D01*
X107358649Y-63396802D01*
X107603253Y-63698862D01*
X107603267Y-63698877D01*
X107878122Y-63973732D01*
X107878137Y-63973746D01*
X108180197Y-64218350D01*
X108180214Y-64218362D01*
X108364185Y-64337833D01*
X108506205Y-64430062D01*
X108852547Y-64606532D01*
X108852551Y-64606533D01*
X108852556Y-64606536D01*
X109215431Y-64745831D01*
X109215436Y-64745832D01*
X109215438Y-64745833D01*
X109590901Y-64846438D01*
X109974824Y-64907246D01*
X109974826Y-64907246D01*
X109974832Y-64907247D01*
X110362994Y-64927589D01*
X110363000Y-64927589D01*
X110363006Y-64927589D01*
X110751167Y-64907247D01*
X110751171Y-64907246D01*
X110751176Y-64907246D01*
X111135099Y-64846438D01*
X111510562Y-64745833D01*
X111510565Y-64745831D01*
X111510568Y-64745831D01*
X111873443Y-64606536D01*
X111873444Y-64606535D01*
X111873453Y-64606532D01*
X112219795Y-64430062D01*
X112545793Y-64218357D01*
X112545802Y-64218350D01*
X112847862Y-63973746D01*
X112847867Y-63973740D01*
X112847876Y-63973734D01*
X113122734Y-63698876D01*
X113122740Y-63698867D01*
X113122746Y-63698862D01*
X113367350Y-63396802D01*
X113367351Y-63396799D01*
X113367357Y-63396793D01*
X113579062Y-63070795D01*
X113755532Y-62724453D01*
X113894833Y-62361562D01*
X113995438Y-61986099D01*
X114056246Y-61602176D01*
X114056246Y-61602171D01*
X114056247Y-61602167D01*
X114076589Y-61214006D01*
X163164411Y-61214006D01*
X163184752Y-61602167D01*
X163245561Y-61986097D01*
X163346168Y-62361568D01*
X163485463Y-62724443D01*
X163485467Y-62724451D01*
X163661938Y-63070795D01*
X163873637Y-63396785D01*
X163873649Y-63396802D01*
X164118253Y-63698862D01*
X164118267Y-63698877D01*
X164393122Y-63973732D01*
X164393137Y-63973746D01*
X164695197Y-64218350D01*
X164695214Y-64218362D01*
X164879185Y-64337833D01*
X165021205Y-64430062D01*
X165367547Y-64606532D01*
X165367551Y-64606533D01*
X165367556Y-64606536D01*
X165730431Y-64745831D01*
X165730436Y-64745832D01*
X165730438Y-64745833D01*
X166105901Y-64846438D01*
X166489824Y-64907246D01*
X166489826Y-64907246D01*
X166489832Y-64907247D01*
X166877994Y-64927589D01*
X166878000Y-64927589D01*
X166878006Y-64927589D01*
X167266167Y-64907247D01*
X167266171Y-64907246D01*
X167266176Y-64907246D01*
X167650099Y-64846438D01*
X168025562Y-64745833D01*
X168025565Y-64745831D01*
X168025568Y-64745831D01*
X168388443Y-64606536D01*
X168388444Y-64606535D01*
X168388453Y-64606532D01*
X168734795Y-64430062D01*
X169060793Y-64218357D01*
X169060802Y-64218350D01*
X169362862Y-63973746D01*
X169362867Y-63973740D01*
X169362876Y-63973734D01*
X169637734Y-63698876D01*
X169637740Y-63698867D01*
X169637746Y-63698862D01*
X169882350Y-63396802D01*
X169882351Y-63396799D01*
X169882357Y-63396793D01*
X170094062Y-63070795D01*
X170270532Y-62724453D01*
X170409833Y-62361562D01*
X170510438Y-61986099D01*
X170571246Y-61602176D01*
X170571246Y-61602171D01*
X170571247Y-61602167D01*
X170591589Y-61214006D01*
X170591589Y-61213993D01*
X170571247Y-60825832D01*
X170510438Y-60441902D01*
X170409831Y-60066431D01*
X170270536Y-59703556D01*
X170270532Y-59703548D01*
X170270532Y-59703547D01*
X170094062Y-59357206D01*
X169882357Y-59031207D01*
X169882354Y-59031203D01*
X169882352Y-59031200D01*
X169637746Y-58729137D01*
X169637732Y-58729122D01*
X169362877Y-58454267D01*
X169362862Y-58454253D01*
X169060802Y-58209649D01*
X169060785Y-58209637D01*
X168734795Y-57997938D01*
X168388451Y-57821467D01*
X168388443Y-57821463D01*
X168025568Y-57682168D01*
X167650097Y-57581561D01*
X167266167Y-57520752D01*
X166878006Y-57500411D01*
X166877994Y-57500411D01*
X166489832Y-57520752D01*
X166105902Y-57581561D01*
X165730431Y-57682168D01*
X165367556Y-57821463D01*
X165367548Y-57821467D01*
X165021205Y-57997938D01*
X164695203Y-58209645D01*
X164695200Y-58209647D01*
X164393137Y-58454253D01*
X164393122Y-58454267D01*
X164118267Y-58729122D01*
X164118253Y-58729137D01*
X163873647Y-59031200D01*
X163873645Y-59031203D01*
X163661938Y-59357205D01*
X163485467Y-59703548D01*
X163485463Y-59703556D01*
X163346168Y-60066431D01*
X163245561Y-60441902D01*
X163184752Y-60825832D01*
X163164411Y-61213993D01*
X163164411Y-61214006D01*
X114076589Y-61214006D01*
X114076589Y-61213993D01*
X114056247Y-60825832D01*
X113995438Y-60441902D01*
X113894831Y-60066431D01*
X113755536Y-59703556D01*
X113755532Y-59703548D01*
X113755532Y-59703547D01*
X113579062Y-59357206D01*
X113367357Y-59031207D01*
X113367354Y-59031203D01*
X113367352Y-59031200D01*
X113122746Y-58729137D01*
X113122732Y-58729122D01*
X112847877Y-58454267D01*
X112847862Y-58454253D01*
X112545802Y-58209649D01*
X112545785Y-58209637D01*
X112219795Y-57997938D01*
X111873451Y-57821467D01*
X111873443Y-57821463D01*
X111510568Y-57682168D01*
X111135097Y-57581561D01*
X110751167Y-57520752D01*
X110363006Y-57500411D01*
X110362994Y-57500411D01*
X109974832Y-57520752D01*
X109590902Y-57581561D01*
X109215431Y-57682168D01*
X108852556Y-57821463D01*
X108852548Y-57821467D01*
X108506205Y-57997938D01*
X108180203Y-58209645D01*
X108180200Y-58209647D01*
X107878137Y-58454253D01*
X107878122Y-58454267D01*
X107603267Y-58729122D01*
X107603253Y-58729137D01*
X107358647Y-59031200D01*
X107358645Y-59031203D01*
X107146938Y-59357205D01*
X106970467Y-59703548D01*
X106970463Y-59703556D01*
X106831168Y-60066431D01*
X106730561Y-60441902D01*
X106669752Y-60825832D01*
X106649411Y-61213993D01*
X106649411Y-61214006D01*
X102879532Y-61214006D01*
X102870501Y-59168522D01*
X102870500Y-59167966D01*
X102870500Y-55625000D01*
X102890502Y-55556879D01*
X102944158Y-55510386D01*
X102996500Y-55499000D01*
X172324855Y-55499000D01*
X172392976Y-55519002D01*
G37*
%TD.AperFunction*%
%TA.AperFunction,Conductor*%
G36*
X146604978Y-64231702D02*
G01*
X146625952Y-64248605D01*
X148187829Y-65810482D01*
X148221855Y-65872794D01*
X148216790Y-65943609D01*
X148187830Y-65988672D01*
X148091799Y-66084703D01*
X147960477Y-66272250D01*
X147942195Y-66311457D01*
X147895278Y-66364742D01*
X147827001Y-66384203D01*
X147759041Y-66363661D01*
X147713805Y-66311457D01*
X147711894Y-66307359D01*
X147695523Y-66272251D01*
X147564198Y-66084700D01*
X147402300Y-65922802D01*
X147330881Y-65872794D01*
X147214749Y-65791477D01*
X147007246Y-65694717D01*
X147007240Y-65694715D01*
X146812666Y-65642579D01*
X146786087Y-65635457D01*
X146558000Y-65615502D01*
X146329913Y-65635457D01*
X146108759Y-65694715D01*
X146108753Y-65694717D01*
X145901250Y-65791477D01*
X145713703Y-65922799D01*
X145713697Y-65922804D01*
X145551804Y-66084697D01*
X145551799Y-66084703D01*
X145420477Y-66272250D01*
X145402195Y-66311457D01*
X145355278Y-66364742D01*
X145287001Y-66384203D01*
X145219041Y-66363661D01*
X145173805Y-66311457D01*
X145171894Y-66307359D01*
X145155523Y-66272251D01*
X145024198Y-66084700D01*
X144862300Y-65922802D01*
X144790881Y-65872794D01*
X144674749Y-65791477D01*
X144467246Y-65694717D01*
X144467240Y-65694715D01*
X144272666Y-65642579D01*
X144246087Y-65635457D01*
X144018000Y-65615502D01*
X143789913Y-65635457D01*
X143568759Y-65694715D01*
X143568753Y-65694717D01*
X143361250Y-65791477D01*
X143173703Y-65922799D01*
X143173697Y-65922804D01*
X143011804Y-66084697D01*
X143011799Y-66084703D01*
X142880477Y-66272250D01*
X142862195Y-66311457D01*
X142815278Y-66364742D01*
X142747001Y-66384203D01*
X142679041Y-66363661D01*
X142633805Y-66311457D01*
X142631894Y-66307359D01*
X142615523Y-66272251D01*
X142484198Y-66084700D01*
X142322300Y-65922802D01*
X142250881Y-65872794D01*
X142134749Y-65791477D01*
X141927246Y-65694717D01*
X141927240Y-65694715D01*
X141732666Y-65642579D01*
X141706087Y-65635457D01*
X141478000Y-65615502D01*
X141249913Y-65635457D01*
X141028759Y-65694715D01*
X141028753Y-65694717D01*
X140821250Y-65791477D01*
X140633703Y-65922799D01*
X140633697Y-65922804D01*
X140471804Y-66084697D01*
X140471799Y-66084703D01*
X140340477Y-66272250D01*
X140322195Y-66311457D01*
X140275278Y-66364742D01*
X140207001Y-66384203D01*
X140139041Y-66363661D01*
X140093805Y-66311457D01*
X140091894Y-66307359D01*
X140075523Y-66272251D01*
X139944198Y-66084700D01*
X139782300Y-65922802D01*
X139710881Y-65872794D01*
X139594749Y-65791477D01*
X139387246Y-65694717D01*
X139387240Y-65694715D01*
X139192666Y-65642579D01*
X139166087Y-65635457D01*
X138938000Y-65615502D01*
X138709913Y-65635457D01*
X138488759Y-65694715D01*
X138488753Y-65694717D01*
X138281250Y-65791477D01*
X138093703Y-65922799D01*
X138093697Y-65922804D01*
X137931804Y-66084697D01*
X137931799Y-66084703D01*
X137800477Y-66272250D01*
X137703717Y-66479753D01*
X137703715Y-66479759D01*
X137644457Y-66700913D01*
X137624502Y-66929000D01*
X137644457Y-67157086D01*
X137703715Y-67378240D01*
X137703717Y-67378246D01*
X137800477Y-67585749D01*
X137931799Y-67773296D01*
X137931804Y-67773302D01*
X138093697Y-67935195D01*
X138093705Y-67935202D01*
X138121769Y-67954852D01*
X138166099Y-68010308D01*
X138175500Y-68058066D01*
X138175500Y-73118059D01*
X138155498Y-73186180D01*
X138101842Y-73232673D01*
X138062968Y-73243337D01*
X138028803Y-73247009D01*
X138028795Y-73247011D01*
X137891797Y-73298110D01*
X137891792Y-73298112D01*
X137774738Y-73385738D01*
X137687112Y-73502792D01*
X137687110Y-73502797D01*
X137636011Y-73639795D01*
X137636009Y-73639803D01*
X137629500Y-73700350D01*
X137629500Y-75397649D01*
X137636009Y-75458196D01*
X137636011Y-75458204D01*
X137687110Y-75595202D01*
X137687112Y-75595207D01*
X137774738Y-75712261D01*
X137891792Y-75799887D01*
X137891794Y-75799888D01*
X137891796Y-75799889D01*
X137946254Y-75820201D01*
X138028795Y-75850988D01*
X138028803Y-75850990D01*
X138089350Y-75857499D01*
X138089355Y-75857499D01*
X138089362Y-75857500D01*
X138089368Y-75857500D01*
X139786632Y-75857500D01*
X139786638Y-75857500D01*
X139786645Y-75857499D01*
X139786649Y-75857499D01*
X139847196Y-75850990D01*
X139847199Y-75850989D01*
X139847201Y-75850989D01*
X139984204Y-75799889D01*
X140006389Y-75783282D01*
X140101261Y-75712261D01*
X140188887Y-75595207D01*
X140188887Y-75595206D01*
X140188889Y-75595204D01*
X140239989Y-75458201D01*
X140240998Y-75448808D01*
X140268163Y-75383215D01*
X140326478Y-75342721D01*
X140397429Y-75340182D01*
X140458490Y-75376405D01*
X140469487Y-75389995D01*
X140471796Y-75393292D01*
X140471802Y-75393300D01*
X140633700Y-75555198D01*
X140821251Y-75686523D01*
X141028757Y-75783284D01*
X141249913Y-75842543D01*
X141478000Y-75862498D01*
X141706087Y-75842543D01*
X141927243Y-75783284D01*
X142134749Y-75686523D01*
X142322300Y-75555198D01*
X142484198Y-75393300D01*
X142503854Y-75365229D01*
X142559312Y-75320900D01*
X142607067Y-75311500D01*
X142888933Y-75311500D01*
X142957054Y-75331502D01*
X142992146Y-75365229D01*
X143011802Y-75393300D01*
X143173700Y-75555198D01*
X143361251Y-75686523D01*
X143568757Y-75783284D01*
X143789913Y-75842543D01*
X144017238Y-75862431D01*
X144083354Y-75888293D01*
X144124993Y-75945797D01*
X144128934Y-76016684D01*
X144095349Y-76077046D01*
X139977763Y-80194632D01*
X139915451Y-80228658D01*
X139844636Y-80223593D01*
X139816398Y-80208751D01*
X139785088Y-80186828D01*
X139721749Y-80142477D01*
X139721746Y-80142476D01*
X139721744Y-80142474D01*
X139514246Y-80045717D01*
X139514240Y-80045715D01*
X139420771Y-80020670D01*
X139293087Y-79986457D01*
X139065000Y-79966502D01*
X138836913Y-79986457D01*
X138615759Y-80045715D01*
X138615753Y-80045717D01*
X138408250Y-80142477D01*
X138220703Y-80273799D01*
X138220697Y-80273804D01*
X138058804Y-80435697D01*
X138058799Y-80435703D01*
X137927477Y-80623250D01*
X137909195Y-80662457D01*
X137862278Y-80715742D01*
X137794001Y-80735203D01*
X137726041Y-80714661D01*
X137680805Y-80662457D01*
X137678894Y-80658359D01*
X137662523Y-80623251D01*
X137531198Y-80435700D01*
X137369300Y-80273802D01*
X137363003Y-80269393D01*
X137181749Y-80142477D01*
X136974246Y-80045717D01*
X136974240Y-80045715D01*
X136880771Y-80020670D01*
X136753087Y-79986457D01*
X136525000Y-79966502D01*
X136296913Y-79986457D01*
X136075759Y-80045715D01*
X136075753Y-80045717D01*
X135868250Y-80142477D01*
X135680703Y-80273799D01*
X135680697Y-80273804D01*
X135518804Y-80435697D01*
X135518799Y-80435703D01*
X135387477Y-80623250D01*
X135369195Y-80662457D01*
X135322278Y-80715742D01*
X135254001Y-80735203D01*
X135186041Y-80714661D01*
X135140805Y-80662457D01*
X135138894Y-80658359D01*
X135122523Y-80623251D01*
X134991198Y-80435700D01*
X134829300Y-80273802D01*
X134823003Y-80269393D01*
X134641749Y-80142477D01*
X134434246Y-80045717D01*
X134434240Y-80045715D01*
X134340771Y-80020670D01*
X134213087Y-79986457D01*
X133985000Y-79966502D01*
X133756913Y-79986457D01*
X133535759Y-80045715D01*
X133535753Y-80045717D01*
X133328250Y-80142477D01*
X133140703Y-80273799D01*
X133140697Y-80273804D01*
X132978804Y-80435697D01*
X132978799Y-80435703D01*
X132847477Y-80623250D01*
X132829195Y-80662457D01*
X132782278Y-80715742D01*
X132714001Y-80735203D01*
X132646041Y-80714661D01*
X132600805Y-80662457D01*
X132598894Y-80658359D01*
X132582523Y-80623251D01*
X132451198Y-80435700D01*
X132289300Y-80273802D01*
X132283003Y-80269393D01*
X132101749Y-80142477D01*
X131894246Y-80045717D01*
X131894240Y-80045715D01*
X131800771Y-80020670D01*
X131673087Y-79986457D01*
X131445000Y-79966502D01*
X131216913Y-79986457D01*
X130995759Y-80045715D01*
X130995753Y-80045717D01*
X130788250Y-80142477D01*
X130600703Y-80273799D01*
X130600697Y-80273804D01*
X130438804Y-80435697D01*
X130438799Y-80435703D01*
X130307477Y-80623250D01*
X130289195Y-80662457D01*
X130242278Y-80715742D01*
X130174001Y-80735203D01*
X130106041Y-80714661D01*
X130060805Y-80662457D01*
X130058894Y-80658359D01*
X130042523Y-80623251D01*
X129911198Y-80435700D01*
X129749300Y-80273802D01*
X129743003Y-80269393D01*
X129561749Y-80142477D01*
X129354246Y-80045717D01*
X129354240Y-80045715D01*
X129260771Y-80020670D01*
X129133087Y-79986457D01*
X128905000Y-79966502D01*
X128676913Y-79986457D01*
X128455759Y-80045715D01*
X128455753Y-80045717D01*
X128248250Y-80142477D01*
X128060703Y-80273799D01*
X128060697Y-80273804D01*
X127898804Y-80435697D01*
X127898799Y-80435703D01*
X127767477Y-80623250D01*
X127749195Y-80662457D01*
X127702278Y-80715742D01*
X127634001Y-80735203D01*
X127566041Y-80714661D01*
X127520805Y-80662457D01*
X127518894Y-80658359D01*
X127502523Y-80623251D01*
X127371198Y-80435700D01*
X127209300Y-80273802D01*
X127203003Y-80269393D01*
X127021749Y-80142477D01*
X126814246Y-80045717D01*
X126814240Y-80045715D01*
X126720771Y-80020670D01*
X126593087Y-79986457D01*
X126365000Y-79966502D01*
X126136913Y-79986457D01*
X125915759Y-80045715D01*
X125915753Y-80045717D01*
X125708250Y-80142477D01*
X125520703Y-80273799D01*
X125520697Y-80273804D01*
X125358804Y-80435697D01*
X125358799Y-80435703D01*
X125227477Y-80623250D01*
X125209195Y-80662457D01*
X125162278Y-80715742D01*
X125094001Y-80735203D01*
X125026041Y-80714661D01*
X124980805Y-80662457D01*
X124978894Y-80658359D01*
X124962523Y-80623251D01*
X124831198Y-80435700D01*
X124669300Y-80273802D01*
X124663003Y-80269393D01*
X124481749Y-80142477D01*
X124274246Y-80045717D01*
X124274240Y-80045715D01*
X124180771Y-80020670D01*
X124053087Y-79986457D01*
X123825000Y-79966502D01*
X123596913Y-79986457D01*
X123375759Y-80045715D01*
X123375753Y-80045717D01*
X123168250Y-80142477D01*
X122980703Y-80273799D01*
X122980697Y-80273804D01*
X122818804Y-80435697D01*
X122818799Y-80435703D01*
X122687477Y-80623250D01*
X122669195Y-80662457D01*
X122622278Y-80715742D01*
X122554001Y-80735203D01*
X122486041Y-80714661D01*
X122440805Y-80662457D01*
X122438894Y-80658359D01*
X122422523Y-80623251D01*
X122291198Y-80435700D01*
X122129300Y-80273802D01*
X122123003Y-80269393D01*
X121941749Y-80142477D01*
X121734246Y-80045717D01*
X121734240Y-80045715D01*
X121640771Y-80020670D01*
X121513087Y-79986457D01*
X121285000Y-79966502D01*
X121056913Y-79986457D01*
X120835759Y-80045715D01*
X120835753Y-80045717D01*
X120628250Y-80142477D01*
X120440703Y-80273799D01*
X120440697Y-80273804D01*
X120278804Y-80435697D01*
X120278799Y-80435703D01*
X120147477Y-80623250D01*
X120050717Y-80830753D01*
X120050716Y-80830757D01*
X119991457Y-81051913D01*
X119971502Y-81280000D01*
X119991457Y-81508087D01*
X120050716Y-81729243D01*
X120147477Y-81936749D01*
X120278802Y-82124300D01*
X120440700Y-82286198D01*
X120628251Y-82417523D01*
X120835757Y-82514284D01*
X121056913Y-82573543D01*
X121285000Y-82593498D01*
X121513087Y-82573543D01*
X121734243Y-82514284D01*
X121941749Y-82417523D01*
X122129300Y-82286198D01*
X122291198Y-82124300D01*
X122422523Y-81936749D01*
X122440805Y-81897543D01*
X122487721Y-81844258D01*
X122555998Y-81824796D01*
X122623958Y-81845337D01*
X122669195Y-81897543D01*
X122687477Y-81936749D01*
X122818802Y-82124300D01*
X122980700Y-82286198D01*
X123168251Y-82417523D01*
X123375757Y-82514284D01*
X123596913Y-82573543D01*
X123825000Y-82593498D01*
X124053087Y-82573543D01*
X124274243Y-82514284D01*
X124481749Y-82417523D01*
X124669300Y-82286198D01*
X124831198Y-82124300D01*
X124962523Y-81936749D01*
X124980805Y-81897543D01*
X125027721Y-81844258D01*
X125095998Y-81824796D01*
X125163958Y-81845337D01*
X125209195Y-81897543D01*
X125227477Y-81936749D01*
X125358802Y-82124300D01*
X125520700Y-82286198D01*
X125708251Y-82417523D01*
X125915757Y-82514284D01*
X126136913Y-82573543D01*
X126365000Y-82593498D01*
X126593087Y-82573543D01*
X126814243Y-82514284D01*
X127021749Y-82417523D01*
X127209300Y-82286198D01*
X127371198Y-82124300D01*
X127502523Y-81936749D01*
X127520805Y-81897543D01*
X127567721Y-81844258D01*
X127635998Y-81824796D01*
X127703958Y-81845337D01*
X127749195Y-81897543D01*
X127767477Y-81936749D01*
X127898802Y-82124300D01*
X128060700Y-82286198D01*
X128248251Y-82417523D01*
X128455757Y-82514284D01*
X128676913Y-82573543D01*
X128905000Y-82593498D01*
X129133087Y-82573543D01*
X129354243Y-82514284D01*
X129561749Y-82417523D01*
X129749300Y-82286198D01*
X129911198Y-82124300D01*
X130042523Y-81936749D01*
X130060805Y-81897543D01*
X130107721Y-81844258D01*
X130175998Y-81824796D01*
X130243958Y-81845337D01*
X130289195Y-81897543D01*
X130307477Y-81936749D01*
X130438802Y-82124300D01*
X130600700Y-82286198D01*
X130788251Y-82417523D01*
X130995757Y-82514284D01*
X131216913Y-82573543D01*
X131445000Y-82593498D01*
X131673087Y-82573543D01*
X131894243Y-82514284D01*
X132101749Y-82417523D01*
X132289300Y-82286198D01*
X132451198Y-82124300D01*
X132582523Y-81936749D01*
X132600805Y-81897543D01*
X132647721Y-81844258D01*
X132715998Y-81824796D01*
X132783958Y-81845337D01*
X132829195Y-81897543D01*
X132847477Y-81936749D01*
X132978802Y-82124300D01*
X133140700Y-82286198D01*
X133328251Y-82417523D01*
X133535757Y-82514284D01*
X133756913Y-82573543D01*
X133985000Y-82593498D01*
X134213087Y-82573543D01*
X134434243Y-82514284D01*
X134641749Y-82417523D01*
X134829300Y-82286198D01*
X134991198Y-82124300D01*
X135122523Y-81936749D01*
X135140805Y-81897543D01*
X135187721Y-81844258D01*
X135255998Y-81824796D01*
X135323958Y-81845337D01*
X135369195Y-81897543D01*
X135387477Y-81936749D01*
X135518802Y-82124300D01*
X135680700Y-82286198D01*
X135868251Y-82417523D01*
X136075757Y-82514284D01*
X136296913Y-82573543D01*
X136525000Y-82593498D01*
X136753087Y-82573543D01*
X136974243Y-82514284D01*
X137181749Y-82417523D01*
X137369300Y-82286198D01*
X137531198Y-82124300D01*
X137662523Y-81936749D01*
X137680805Y-81897543D01*
X137727721Y-81844258D01*
X137795998Y-81824796D01*
X137863958Y-81845337D01*
X137909195Y-81897543D01*
X137927477Y-81936749D01*
X138058802Y-82124300D01*
X138220700Y-82286198D01*
X138408251Y-82417523D01*
X138615757Y-82514284D01*
X138836913Y-82573543D01*
X139065000Y-82593498D01*
X139293087Y-82573543D01*
X139502692Y-82517379D01*
X139573665Y-82519069D01*
X139632461Y-82558863D01*
X139660409Y-82624127D01*
X139661300Y-82639086D01*
X139661300Y-94353457D01*
X139641298Y-94421578D01*
X139587642Y-94468071D01*
X139517368Y-94478175D01*
X139452788Y-94448681D01*
X139446205Y-94442552D01*
X138533156Y-93529503D01*
X138527938Y-93523961D01*
X138527745Y-93523743D01*
X138490477Y-93481676D01*
X138443973Y-93449576D01*
X138437857Y-93445075D01*
X138393420Y-93410261D01*
X138385446Y-93406672D01*
X138365587Y-93395471D01*
X138358391Y-93390504D01*
X138358389Y-93390503D01*
X138305590Y-93370478D01*
X138298562Y-93367567D01*
X138247069Y-93344393D01*
X138247061Y-93344390D01*
X138241596Y-93343389D01*
X138238460Y-93342814D01*
X138216495Y-93336690D01*
X138208324Y-93333591D01*
X138152274Y-93326785D01*
X138144752Y-93325640D01*
X138089199Y-93315460D01*
X138089197Y-93315460D01*
X138036516Y-93318646D01*
X138032826Y-93318870D01*
X138025218Y-93319100D01*
X133500782Y-93319100D01*
X133493174Y-93318870D01*
X133490658Y-93318717D01*
X133436803Y-93315460D01*
X133436802Y-93315460D01*
X133436800Y-93315460D01*
X133436799Y-93315460D01*
X133381245Y-93325640D01*
X133373724Y-93326785D01*
X133317676Y-93333591D01*
X133309493Y-93336694D01*
X133287543Y-93342813D01*
X133278933Y-93344391D01*
X133227446Y-93367563D01*
X133220420Y-93370473D01*
X133167612Y-93390502D01*
X133167600Y-93390508D01*
X133160401Y-93395477D01*
X133140561Y-93406667D01*
X133132588Y-93410256D01*
X133132573Y-93410265D01*
X133088123Y-93445087D01*
X133082000Y-93449593D01*
X133035522Y-93481676D01*
X132998084Y-93523935D01*
X132992868Y-93529476D01*
X132277293Y-94245052D01*
X132271752Y-94250268D01*
X132229477Y-94287721D01*
X132197389Y-94334208D01*
X132192886Y-94340327D01*
X132158061Y-94384780D01*
X132158058Y-94384784D01*
X132154470Y-94392756D01*
X132143275Y-94412606D01*
X132138305Y-94419807D01*
X132138302Y-94419812D01*
X132118273Y-94472620D01*
X132115363Y-94479646D01*
X132092191Y-94531133D01*
X132090613Y-94539743D01*
X132084494Y-94561693D01*
X132081391Y-94569876D01*
X132074585Y-94625924D01*
X132073440Y-94633445D01*
X132063260Y-94688999D01*
X132063260Y-94689000D01*
X132063260Y-94689002D01*
X132063260Y-94689003D01*
X132066670Y-94745373D01*
X132066900Y-94752981D01*
X132066900Y-95168611D01*
X132046898Y-95236732D01*
X131993242Y-95283225D01*
X131922968Y-95293329D01*
X131897808Y-95287013D01*
X131894249Y-95285717D01*
X131727869Y-95241136D01*
X131673087Y-95226457D01*
X131445000Y-95206502D01*
X131216913Y-95226457D01*
X130995759Y-95285715D01*
X130995753Y-95285717D01*
X130788250Y-95382477D01*
X130600703Y-95513799D01*
X130600697Y-95513804D01*
X130438804Y-95675697D01*
X130438799Y-95675703D01*
X130307477Y-95863250D01*
X130289195Y-95902457D01*
X130242278Y-95955742D01*
X130174001Y-95975203D01*
X130106041Y-95954661D01*
X130060805Y-95902457D01*
X130058894Y-95898359D01*
X130042523Y-95863251D01*
X129911198Y-95675700D01*
X129749300Y-95513802D01*
X129561749Y-95382477D01*
X129354246Y-95285717D01*
X129354240Y-95285715D01*
X129260771Y-95260670D01*
X129133087Y-95226457D01*
X128905000Y-95206502D01*
X128676913Y-95226457D01*
X128455759Y-95285715D01*
X128455753Y-95285717D01*
X128248250Y-95382477D01*
X128060703Y-95513799D01*
X128060697Y-95513804D01*
X127898804Y-95675697D01*
X127898799Y-95675703D01*
X127767477Y-95863250D01*
X127749195Y-95902457D01*
X127702278Y-95955742D01*
X127634001Y-95975203D01*
X127566041Y-95954661D01*
X127520805Y-95902457D01*
X127518894Y-95898359D01*
X127502523Y-95863251D01*
X127371198Y-95675700D01*
X127209300Y-95513802D01*
X127021749Y-95382477D01*
X126814246Y-95285717D01*
X126814240Y-95285715D01*
X126720771Y-95260670D01*
X126593087Y-95226457D01*
X126365000Y-95206502D01*
X126136913Y-95226457D01*
X125915759Y-95285715D01*
X125915753Y-95285717D01*
X125708250Y-95382477D01*
X125520703Y-95513799D01*
X125520697Y-95513804D01*
X125358804Y-95675697D01*
X125358799Y-95675703D01*
X125227477Y-95863250D01*
X125209195Y-95902457D01*
X125162278Y-95955742D01*
X125094001Y-95975203D01*
X125026041Y-95954661D01*
X124980805Y-95902457D01*
X124978894Y-95898359D01*
X124962523Y-95863251D01*
X124831198Y-95675700D01*
X124669300Y-95513802D01*
X124481749Y-95382477D01*
X124274246Y-95285717D01*
X124274240Y-95285715D01*
X124180771Y-95260670D01*
X124053087Y-95226457D01*
X123825000Y-95206502D01*
X123596913Y-95226457D01*
X123375759Y-95285715D01*
X123375753Y-95285717D01*
X123168250Y-95382477D01*
X122980703Y-95513799D01*
X122980697Y-95513804D01*
X122818804Y-95675697D01*
X122818799Y-95675703D01*
X122687477Y-95863250D01*
X122669195Y-95902457D01*
X122622278Y-95955742D01*
X122554001Y-95975203D01*
X122486041Y-95954661D01*
X122440805Y-95902457D01*
X122438894Y-95898359D01*
X122422523Y-95863251D01*
X122291198Y-95675700D01*
X122129300Y-95513802D01*
X121941749Y-95382477D01*
X121734246Y-95285717D01*
X121734240Y-95285715D01*
X121640771Y-95260670D01*
X121513087Y-95226457D01*
X121285000Y-95206502D01*
X121056913Y-95226457D01*
X120835759Y-95285715D01*
X120835753Y-95285717D01*
X120628250Y-95382477D01*
X120440703Y-95513799D01*
X120440697Y-95513804D01*
X120278804Y-95675697D01*
X120278799Y-95675703D01*
X120147477Y-95863250D01*
X120129195Y-95902457D01*
X120082278Y-95955742D01*
X120014001Y-95975203D01*
X119946041Y-95954661D01*
X119900805Y-95902457D01*
X119898894Y-95898359D01*
X119882523Y-95863251D01*
X119751198Y-95675700D01*
X119589300Y-95513802D01*
X119401749Y-95382477D01*
X119194246Y-95285717D01*
X119194240Y-95285715D01*
X119100771Y-95260670D01*
X118973087Y-95226457D01*
X118745000Y-95206502D01*
X118516913Y-95226457D01*
X118295759Y-95285715D01*
X118295753Y-95285717D01*
X118088250Y-95382477D01*
X117900703Y-95513799D01*
X117900697Y-95513804D01*
X117738804Y-95675697D01*
X117738799Y-95675703D01*
X117607477Y-95863250D01*
X117510717Y-96070753D01*
X117510716Y-96070757D01*
X117451457Y-96291913D01*
X117431502Y-96520000D01*
X117451457Y-96748087D01*
X117475000Y-96835950D01*
X117510715Y-96969240D01*
X117510717Y-96969246D01*
X117607477Y-97176749D01*
X117710793Y-97324300D01*
X117738802Y-97364300D01*
X117900700Y-97526198D01*
X117900703Y-97526200D01*
X117900708Y-97526204D01*
X118030370Y-97616994D01*
X118074699Y-97672451D01*
X118084100Y-97720207D01*
X118084100Y-104370217D01*
X118083870Y-104377825D01*
X118080460Y-104434197D01*
X118090640Y-104489752D01*
X118091785Y-104497274D01*
X118098591Y-104553324D01*
X118101690Y-104561495D01*
X118107815Y-104583463D01*
X118109390Y-104592061D01*
X118109393Y-104592069D01*
X118132567Y-104643562D01*
X118135478Y-104650590D01*
X118155503Y-104703389D01*
X118155503Y-104703390D01*
X118160471Y-104710587D01*
X118171672Y-104730446D01*
X118175261Y-104738420D01*
X118210075Y-104782857D01*
X118214576Y-104788973D01*
X118246676Y-104835477D01*
X118288743Y-104872745D01*
X118288961Y-104872938D01*
X118294503Y-104878156D01*
X121547195Y-108130848D01*
X121581221Y-108193160D01*
X121584100Y-108219943D01*
X121584100Y-116714000D01*
X121564098Y-116782121D01*
X121510442Y-116828614D01*
X121458100Y-116840000D01*
X120491900Y-116840000D01*
X120423779Y-116819998D01*
X120377286Y-116766342D01*
X120365900Y-116714000D01*
X120365900Y-115791781D01*
X120366130Y-115784173D01*
X120369540Y-115727803D01*
X120359351Y-115672211D01*
X120358216Y-115664752D01*
X120351408Y-115608675D01*
X120348306Y-115600498D01*
X120342185Y-115578538D01*
X120340609Y-115569936D01*
X120317431Y-115518436D01*
X120314522Y-115511414D01*
X120294497Y-115458611D01*
X120294496Y-115458609D01*
X120289524Y-115451406D01*
X120278324Y-115431546D01*
X120274739Y-115423581D01*
X120239920Y-115379136D01*
X120235418Y-115373018D01*
X120203324Y-115326523D01*
X120161047Y-115289069D01*
X120155505Y-115283851D01*
X110425805Y-105554151D01*
X110391779Y-105491839D01*
X110388900Y-105465056D01*
X110388900Y-83790343D01*
X110408902Y-83722222D01*
X110425805Y-83701248D01*
X120761053Y-73366000D01*
X134449502Y-73366000D01*
X134469457Y-73594087D01*
X134497930Y-73700350D01*
X134528715Y-73815240D01*
X134528717Y-73815246D01*
X134564625Y-73892251D01*
X134625477Y-74022749D01*
X134756802Y-74210300D01*
X134918700Y-74372198D01*
X135106251Y-74503523D01*
X135313757Y-74600284D01*
X135534913Y-74659543D01*
X135763000Y-74679498D01*
X135991087Y-74659543D01*
X136212243Y-74600284D01*
X136419749Y-74503523D01*
X136607300Y-74372198D01*
X136769198Y-74210300D01*
X136900523Y-74022749D01*
X136997284Y-73815243D01*
X137056543Y-73594087D01*
X137076498Y-73366000D01*
X137056543Y-73137913D01*
X136997284Y-72916757D01*
X136900523Y-72709251D01*
X136769198Y-72521700D01*
X136607300Y-72359802D01*
X136419749Y-72228477D01*
X136212246Y-72131717D01*
X136212240Y-72131715D01*
X136118771Y-72106670D01*
X135991087Y-72072457D01*
X135763000Y-72052502D01*
X135534913Y-72072457D01*
X135313759Y-72131715D01*
X135313753Y-72131717D01*
X135106250Y-72228477D01*
X134918703Y-72359799D01*
X134918697Y-72359804D01*
X134756804Y-72521697D01*
X134756799Y-72521703D01*
X134625477Y-72709250D01*
X134528717Y-72916753D01*
X134528716Y-72916757D01*
X134469457Y-73137913D01*
X134449502Y-73366000D01*
X120761053Y-73366000D01*
X129878448Y-64248605D01*
X129940760Y-64214579D01*
X129967543Y-64211700D01*
X146536857Y-64211700D01*
X146604978Y-64231702D01*
G37*
%TD.AperFunction*%
%TA.AperFunction,Conductor*%
G36*
X150037802Y-82398167D02*
G01*
X150063037Y-82417690D01*
X152349995Y-84704648D01*
X152384021Y-84766960D01*
X152386900Y-84793743D01*
X152386900Y-96714806D01*
X152366898Y-96782927D01*
X152349995Y-96803901D01*
X150664702Y-98489195D01*
X150602390Y-98523220D01*
X150575607Y-98526100D01*
X150261292Y-98526100D01*
X150193171Y-98506098D01*
X150146678Y-98452442D01*
X150136574Y-98382168D01*
X150166068Y-98317588D01*
X150172182Y-98311019D01*
X150932727Y-97550474D01*
X150938238Y-97545288D01*
X150959782Y-97526202D01*
X150980524Y-97507827D01*
X151012613Y-97461336D01*
X151017107Y-97455227D01*
X151051939Y-97410770D01*
X151055524Y-97402803D01*
X151066727Y-97382939D01*
X151071696Y-97375741D01*
X151091204Y-97324302D01*
X151091723Y-97322933D01*
X151094637Y-97315898D01*
X151117806Y-97264421D01*
X151117806Y-97264420D01*
X151117809Y-97264414D01*
X151119385Y-97255809D01*
X151125508Y-97233847D01*
X151128608Y-97225675D01*
X151135416Y-97169600D01*
X151136552Y-97162132D01*
X151146740Y-97106547D01*
X151143330Y-97050175D01*
X151143100Y-97042567D01*
X151143100Y-84592981D01*
X151143330Y-84585373D01*
X151146740Y-84529003D01*
X151136551Y-84473411D01*
X151135416Y-84465952D01*
X151128608Y-84409875D01*
X151125506Y-84401698D01*
X151119385Y-84379738D01*
X151117809Y-84371136D01*
X151094629Y-84319632D01*
X151091721Y-84312610D01*
X151071697Y-84259811D01*
X151071695Y-84259807D01*
X151066728Y-84252610D01*
X151055528Y-84232752D01*
X151051940Y-84224781D01*
X151017119Y-84180335D01*
X151012608Y-84174205D01*
X150990233Y-84141789D01*
X150980524Y-84127723D01*
X150938246Y-84090268D01*
X150932705Y-84085051D01*
X149582253Y-82734599D01*
X149548227Y-82672287D01*
X149553292Y-82601472D01*
X149595839Y-82544636D01*
X149638737Y-82523797D01*
X149674243Y-82514284D01*
X149881749Y-82417523D01*
X149901671Y-82403572D01*
X149968941Y-82380884D01*
X150037802Y-82398167D01*
G37*
%TD.AperFunction*%
%TA.AperFunction,Conductor*%
G36*
X149637932Y-70729887D02*
G01*
X149694768Y-70772434D01*
X149719579Y-70838954D01*
X149719900Y-70847943D01*
X149719900Y-74845256D01*
X149699898Y-74913377D01*
X149682995Y-74934351D01*
X147504501Y-77112844D01*
X147498961Y-77118060D01*
X147456677Y-77155521D01*
X147424589Y-77202008D01*
X147420081Y-77208135D01*
X147385258Y-77252584D01*
X147381670Y-77260556D01*
X147370475Y-77280406D01*
X147365505Y-77287607D01*
X147365502Y-77287612D01*
X147345473Y-77340420D01*
X147342563Y-77347446D01*
X147319391Y-77398933D01*
X147317813Y-77407543D01*
X147311694Y-77429493D01*
X147308591Y-77437676D01*
X147301785Y-77493724D01*
X147300640Y-77501245D01*
X147290460Y-77556799D01*
X147290460Y-77556800D01*
X147293870Y-77613173D01*
X147294100Y-77620781D01*
X147294100Y-79924342D01*
X147274098Y-79992463D01*
X147220442Y-80038956D01*
X147150168Y-80049060D01*
X147135489Y-80046049D01*
X146945981Y-79995271D01*
X146913087Y-79986457D01*
X146685000Y-79966502D01*
X146456913Y-79986457D01*
X146235759Y-80045715D01*
X146235753Y-80045717D01*
X146028250Y-80142477D01*
X145840703Y-80273799D01*
X145840697Y-80273804D01*
X145678804Y-80435697D01*
X145678799Y-80435703D01*
X145547477Y-80623250D01*
X145529195Y-80662457D01*
X145482278Y-80715742D01*
X145414001Y-80735203D01*
X145346041Y-80714661D01*
X145300805Y-80662457D01*
X145298894Y-80658359D01*
X145282523Y-80623251D01*
X145151198Y-80435700D01*
X144989300Y-80273802D01*
X144983003Y-80269393D01*
X144801749Y-80142477D01*
X144594246Y-80045717D01*
X144594240Y-80045715D01*
X144500771Y-80020670D01*
X144373087Y-79986457D01*
X144145000Y-79966502D01*
X143916913Y-79986457D01*
X143695759Y-80045715D01*
X143695753Y-80045717D01*
X143488250Y-80142477D01*
X143300703Y-80273799D01*
X143300697Y-80273804D01*
X143138804Y-80435697D01*
X143138799Y-80435703D01*
X143007477Y-80623250D01*
X142989195Y-80662457D01*
X142942278Y-80715742D01*
X142874001Y-80735203D01*
X142806041Y-80714661D01*
X142760805Y-80662457D01*
X142758894Y-80658359D01*
X142742523Y-80623251D01*
X142611198Y-80435700D01*
X142449300Y-80273802D01*
X142443003Y-80269393D01*
X142261749Y-80142477D01*
X142177599Y-80103237D01*
X142124314Y-80056319D01*
X142104853Y-79988042D01*
X142125395Y-79920082D01*
X142141749Y-79899952D01*
X145461498Y-76580205D01*
X145523810Y-76546179D01*
X145550593Y-76543300D01*
X147359818Y-76543300D01*
X147367426Y-76543530D01*
X147423797Y-76546940D01*
X147479382Y-76536752D01*
X147486850Y-76535616D01*
X147542925Y-76528808D01*
X147551097Y-76525708D01*
X147573059Y-76519585D01*
X147581664Y-76518009D01*
X147633155Y-76494833D01*
X147640183Y-76491923D01*
X147654463Y-76486507D01*
X147692991Y-76471896D01*
X147700189Y-76466927D01*
X147720053Y-76455724D01*
X147728020Y-76452139D01*
X147772477Y-76417307D01*
X147778591Y-76412810D01*
X147825077Y-76380724D01*
X147862546Y-76338428D01*
X147867731Y-76332920D01*
X148291335Y-75909317D01*
X148296844Y-75904132D01*
X148339124Y-75866677D01*
X148371214Y-75820185D01*
X148375715Y-75814069D01*
X148377340Y-75811995D01*
X148410539Y-75769620D01*
X148414124Y-75761653D01*
X148425327Y-75741789D01*
X148430296Y-75734591D01*
X148450323Y-75681783D01*
X148453237Y-75674748D01*
X148454217Y-75672572D01*
X148476409Y-75623264D01*
X148477985Y-75614659D01*
X148484108Y-75592697D01*
X148487208Y-75584525D01*
X148494016Y-75528448D01*
X148495156Y-75520954D01*
X148505339Y-75465397D01*
X148501930Y-75409042D01*
X148501700Y-75401434D01*
X148501700Y-71814143D01*
X148521702Y-71746022D01*
X148538605Y-71725048D01*
X149504805Y-70758848D01*
X149567117Y-70724822D01*
X149637932Y-70729887D01*
G37*
%TD.AperFunction*%
%TD*%
M02*
