%TF.GenerationSoftware,KiCad,Pcbnew,7.0.11-7.0.11~ubuntu22.04.1*%
%TF.CreationDate,2024-10-26T19:24:34-04:00*%
%TF.ProjectId,colecovision_multicart,636f6c65-636f-4766-9973-696f6e5f6d75,rev?*%
%TF.SameCoordinates,Original*%
%TF.FileFunction,AssemblyDrawing,Top*%
%FSLAX46Y46*%
G04 Gerber Fmt 4.6, Leading zero omitted, Abs format (unit mm)*
G04 Created by KiCad (PCBNEW 7.0.11-7.0.11~ubuntu22.04.1) date 2024-10-26 19:24:34*
%MOMM*%
%LPD*%
G01*
G04 APERTURE LIST*
%ADD10C,0.090000*%
%ADD11C,0.150000*%
%ADD12C,0.100000*%
G04 APERTURE END LIST*
D10*
X125279375Y-67182748D02*
X125250803Y-67211320D01*
X125250803Y-67211320D02*
X125165089Y-67239891D01*
X125165089Y-67239891D02*
X125107946Y-67239891D01*
X125107946Y-67239891D02*
X125022232Y-67211320D01*
X125022232Y-67211320D02*
X124965089Y-67154177D01*
X124965089Y-67154177D02*
X124936518Y-67097034D01*
X124936518Y-67097034D02*
X124907946Y-66982748D01*
X124907946Y-66982748D02*
X124907946Y-66897034D01*
X124907946Y-66897034D02*
X124936518Y-66782748D01*
X124936518Y-66782748D02*
X124965089Y-66725605D01*
X124965089Y-66725605D02*
X125022232Y-66668462D01*
X125022232Y-66668462D02*
X125107946Y-66639891D01*
X125107946Y-66639891D02*
X125165089Y-66639891D01*
X125165089Y-66639891D02*
X125250803Y-66668462D01*
X125250803Y-66668462D02*
X125279375Y-66697034D01*
X125793661Y-66839891D02*
X125793661Y-67239891D01*
X125650803Y-66611320D02*
X125507946Y-67039891D01*
X125507946Y-67039891D02*
X125879375Y-67039891D01*
D11*
X160684380Y-104001866D02*
X160732000Y-104049485D01*
X160732000Y-104049485D02*
X160779619Y-104192342D01*
X160779619Y-104192342D02*
X160779619Y-104287580D01*
X160779619Y-104287580D02*
X160732000Y-104430437D01*
X160732000Y-104430437D02*
X160636761Y-104525675D01*
X160636761Y-104525675D02*
X160541523Y-104573294D01*
X160541523Y-104573294D02*
X160351047Y-104620913D01*
X160351047Y-104620913D02*
X160208190Y-104620913D01*
X160208190Y-104620913D02*
X160017714Y-104573294D01*
X160017714Y-104573294D02*
X159922476Y-104525675D01*
X159922476Y-104525675D02*
X159827238Y-104430437D01*
X159827238Y-104430437D02*
X159779619Y-104287580D01*
X159779619Y-104287580D02*
X159779619Y-104192342D01*
X159779619Y-104192342D02*
X159827238Y-104049485D01*
X159827238Y-104049485D02*
X159874857Y-104001866D01*
X160779619Y-103049485D02*
X160779619Y-103620913D01*
X160779619Y-103335199D02*
X159779619Y-103335199D01*
X159779619Y-103335199D02*
X159922476Y-103430437D01*
X159922476Y-103430437D02*
X160017714Y-103525675D01*
X160017714Y-103525675D02*
X160065333Y-103620913D01*
X110976580Y-79948066D02*
X111024200Y-79995685D01*
X111024200Y-79995685D02*
X111071819Y-80138542D01*
X111071819Y-80138542D02*
X111071819Y-80233780D01*
X111071819Y-80233780D02*
X111024200Y-80376637D01*
X111024200Y-80376637D02*
X110928961Y-80471875D01*
X110928961Y-80471875D02*
X110833723Y-80519494D01*
X110833723Y-80519494D02*
X110643247Y-80567113D01*
X110643247Y-80567113D02*
X110500390Y-80567113D01*
X110500390Y-80567113D02*
X110309914Y-80519494D01*
X110309914Y-80519494D02*
X110214676Y-80471875D01*
X110214676Y-80471875D02*
X110119438Y-80376637D01*
X110119438Y-80376637D02*
X110071819Y-80233780D01*
X110071819Y-80233780D02*
X110071819Y-80138542D01*
X110071819Y-80138542D02*
X110119438Y-79995685D01*
X110119438Y-79995685D02*
X110167057Y-79948066D01*
X110167057Y-79567113D02*
X110119438Y-79519494D01*
X110119438Y-79519494D02*
X110071819Y-79424256D01*
X110071819Y-79424256D02*
X110071819Y-79186161D01*
X110071819Y-79186161D02*
X110119438Y-79090923D01*
X110119438Y-79090923D02*
X110167057Y-79043304D01*
X110167057Y-79043304D02*
X110262295Y-78995685D01*
X110262295Y-78995685D02*
X110357533Y-78995685D01*
X110357533Y-78995685D02*
X110500390Y-79043304D01*
X110500390Y-79043304D02*
X111071819Y-79614732D01*
X111071819Y-79614732D02*
X111071819Y-78995685D01*
X166116095Y-61668819D02*
X166116095Y-60668819D01*
X166116095Y-61145009D02*
X166687523Y-61145009D01*
X166687523Y-61668819D02*
X166687523Y-60668819D01*
X167116095Y-60764057D02*
X167163714Y-60716438D01*
X167163714Y-60716438D02*
X167258952Y-60668819D01*
X167258952Y-60668819D02*
X167497047Y-60668819D01*
X167497047Y-60668819D02*
X167592285Y-60716438D01*
X167592285Y-60716438D02*
X167639904Y-60764057D01*
X167639904Y-60764057D02*
X167687523Y-60859295D01*
X167687523Y-60859295D02*
X167687523Y-60954533D01*
X167687523Y-60954533D02*
X167639904Y-61097390D01*
X167639904Y-61097390D02*
X167068476Y-61668819D01*
X167068476Y-61668819D02*
X167687523Y-61668819D01*
X146557257Y-66516238D02*
X146509638Y-66611476D01*
X146509638Y-66611476D02*
X146414400Y-66706714D01*
X146414400Y-66706714D02*
X146271542Y-66849571D01*
X146271542Y-66849571D02*
X146223923Y-66944809D01*
X146223923Y-66944809D02*
X146223923Y-67040047D01*
X146462019Y-66992428D02*
X146414400Y-67087666D01*
X146414400Y-67087666D02*
X146319161Y-67182904D01*
X146319161Y-67182904D02*
X146128685Y-67230523D01*
X146128685Y-67230523D02*
X145795352Y-67230523D01*
X145795352Y-67230523D02*
X145604876Y-67182904D01*
X145604876Y-67182904D02*
X145509638Y-67087666D01*
X145509638Y-67087666D02*
X145462019Y-66992428D01*
X145462019Y-66992428D02*
X145462019Y-66801952D01*
X145462019Y-66801952D02*
X145509638Y-66706714D01*
X145509638Y-66706714D02*
X145604876Y-66611476D01*
X145604876Y-66611476D02*
X145795352Y-66563857D01*
X145795352Y-66563857D02*
X146128685Y-66563857D01*
X146128685Y-66563857D02*
X146319161Y-66611476D01*
X146319161Y-66611476D02*
X146414400Y-66706714D01*
X146414400Y-66706714D02*
X146462019Y-66801952D01*
X146462019Y-66801952D02*
X146462019Y-66992428D01*
X146462019Y-65611476D02*
X146462019Y-66182904D01*
X146462019Y-65897190D02*
X145462019Y-65897190D01*
X145462019Y-65897190D02*
X145604876Y-65992428D01*
X145604876Y-65992428D02*
X145700114Y-66087666D01*
X145700114Y-66087666D02*
X145747733Y-66182904D01*
X149552619Y-68607091D02*
X149076428Y-68940424D01*
X149552619Y-69178519D02*
X148552619Y-69178519D01*
X148552619Y-69178519D02*
X148552619Y-68797567D01*
X148552619Y-68797567D02*
X148600238Y-68702329D01*
X148600238Y-68702329D02*
X148647857Y-68654710D01*
X148647857Y-68654710D02*
X148743095Y-68607091D01*
X148743095Y-68607091D02*
X148885952Y-68607091D01*
X148885952Y-68607091D02*
X148981190Y-68654710D01*
X148981190Y-68654710D02*
X149028809Y-68702329D01*
X149028809Y-68702329D02*
X149076428Y-68797567D01*
X149076428Y-68797567D02*
X149076428Y-69178519D01*
X149552619Y-67654710D02*
X149552619Y-68226138D01*
X149552619Y-67940424D02*
X148552619Y-67940424D01*
X148552619Y-67940424D02*
X148695476Y-68035662D01*
X148695476Y-68035662D02*
X148790714Y-68130900D01*
X148790714Y-68130900D02*
X148838333Y-68226138D01*
D10*
X117893375Y-67182748D02*
X117864803Y-67211320D01*
X117864803Y-67211320D02*
X117779089Y-67239891D01*
X117779089Y-67239891D02*
X117721946Y-67239891D01*
X117721946Y-67239891D02*
X117636232Y-67211320D01*
X117636232Y-67211320D02*
X117579089Y-67154177D01*
X117579089Y-67154177D02*
X117550518Y-67097034D01*
X117550518Y-67097034D02*
X117521946Y-66982748D01*
X117521946Y-66982748D02*
X117521946Y-66897034D01*
X117521946Y-66897034D02*
X117550518Y-66782748D01*
X117550518Y-66782748D02*
X117579089Y-66725605D01*
X117579089Y-66725605D02*
X117636232Y-66668462D01*
X117636232Y-66668462D02*
X117721946Y-66639891D01*
X117721946Y-66639891D02*
X117779089Y-66639891D01*
X117779089Y-66639891D02*
X117864803Y-66668462D01*
X117864803Y-66668462D02*
X117893375Y-66697034D01*
X118436232Y-66639891D02*
X118150518Y-66639891D01*
X118150518Y-66639891D02*
X118121946Y-66925605D01*
X118121946Y-66925605D02*
X118150518Y-66897034D01*
X118150518Y-66897034D02*
X118207661Y-66868462D01*
X118207661Y-66868462D02*
X118350518Y-66868462D01*
X118350518Y-66868462D02*
X118407661Y-66897034D01*
X118407661Y-66897034D02*
X118436232Y-66925605D01*
X118436232Y-66925605D02*
X118464803Y-66982748D01*
X118464803Y-66982748D02*
X118464803Y-67125605D01*
X118464803Y-67125605D02*
X118436232Y-67182748D01*
X118436232Y-67182748D02*
X118407661Y-67211320D01*
X118407661Y-67211320D02*
X118350518Y-67239891D01*
X118350518Y-67239891D02*
X118207661Y-67239891D01*
X118207661Y-67239891D02*
X118150518Y-67211320D01*
X118150518Y-67211320D02*
X118121946Y-67182748D01*
D11*
X157960219Y-67908466D02*
X157484028Y-68241799D01*
X157960219Y-68479894D02*
X156960219Y-68479894D01*
X156960219Y-68479894D02*
X156960219Y-68098942D01*
X156960219Y-68098942D02*
X157007838Y-68003704D01*
X157007838Y-68003704D02*
X157055457Y-67956085D01*
X157055457Y-67956085D02*
X157150695Y-67908466D01*
X157150695Y-67908466D02*
X157293552Y-67908466D01*
X157293552Y-67908466D02*
X157388790Y-67956085D01*
X157388790Y-67956085D02*
X157436409Y-68003704D01*
X157436409Y-68003704D02*
X157484028Y-68098942D01*
X157484028Y-68098942D02*
X157484028Y-68479894D01*
X157055457Y-67527513D02*
X157007838Y-67479894D01*
X157007838Y-67479894D02*
X156960219Y-67384656D01*
X156960219Y-67384656D02*
X156960219Y-67146561D01*
X156960219Y-67146561D02*
X157007838Y-67051323D01*
X157007838Y-67051323D02*
X157055457Y-67003704D01*
X157055457Y-67003704D02*
X157150695Y-66956085D01*
X157150695Y-66956085D02*
X157245933Y-66956085D01*
X157245933Y-66956085D02*
X157388790Y-67003704D01*
X157388790Y-67003704D02*
X157960219Y-67575132D01*
X157960219Y-67575132D02*
X157960219Y-66956085D01*
X137173619Y-99517104D02*
X137983142Y-99517104D01*
X137983142Y-99517104D02*
X138078380Y-99469485D01*
X138078380Y-99469485D02*
X138126000Y-99421866D01*
X138126000Y-99421866D02*
X138173619Y-99326628D01*
X138173619Y-99326628D02*
X138173619Y-99136152D01*
X138173619Y-99136152D02*
X138126000Y-99040914D01*
X138126000Y-99040914D02*
X138078380Y-98993295D01*
X138078380Y-98993295D02*
X137983142Y-98945676D01*
X137983142Y-98945676D02*
X137173619Y-98945676D01*
X137268857Y-98517104D02*
X137221238Y-98469485D01*
X137221238Y-98469485D02*
X137173619Y-98374247D01*
X137173619Y-98374247D02*
X137173619Y-98136152D01*
X137173619Y-98136152D02*
X137221238Y-98040914D01*
X137221238Y-98040914D02*
X137268857Y-97993295D01*
X137268857Y-97993295D02*
X137364095Y-97945676D01*
X137364095Y-97945676D02*
X137459333Y-97945676D01*
X137459333Y-97945676D02*
X137602190Y-97993295D01*
X137602190Y-97993295D02*
X138173619Y-98564723D01*
X138173619Y-98564723D02*
X138173619Y-97945676D01*
X166116095Y-113002219D02*
X166116095Y-112002219D01*
X166116095Y-112478409D02*
X166687523Y-112478409D01*
X166687523Y-113002219D02*
X166687523Y-112002219D01*
X167592285Y-112335552D02*
X167592285Y-113002219D01*
X167354190Y-111954600D02*
X167116095Y-112668885D01*
X167116095Y-112668885D02*
X167735142Y-112668885D01*
X141329580Y-79450066D02*
X141377200Y-79497685D01*
X141377200Y-79497685D02*
X141424819Y-79640542D01*
X141424819Y-79640542D02*
X141424819Y-79735780D01*
X141424819Y-79735780D02*
X141377200Y-79878637D01*
X141377200Y-79878637D02*
X141281961Y-79973875D01*
X141281961Y-79973875D02*
X141186723Y-80021494D01*
X141186723Y-80021494D02*
X140996247Y-80069113D01*
X140996247Y-80069113D02*
X140853390Y-80069113D01*
X140853390Y-80069113D02*
X140662914Y-80021494D01*
X140662914Y-80021494D02*
X140567676Y-79973875D01*
X140567676Y-79973875D02*
X140472438Y-79878637D01*
X140472438Y-79878637D02*
X140424819Y-79735780D01*
X140424819Y-79735780D02*
X140424819Y-79640542D01*
X140424819Y-79640542D02*
X140472438Y-79497685D01*
X140472438Y-79497685D02*
X140520057Y-79450066D01*
X140424819Y-79116732D02*
X140424819Y-78497685D01*
X140424819Y-78497685D02*
X140805771Y-78831018D01*
X140805771Y-78831018D02*
X140805771Y-78688161D01*
X140805771Y-78688161D02*
X140853390Y-78592923D01*
X140853390Y-78592923D02*
X140901009Y-78545304D01*
X140901009Y-78545304D02*
X140996247Y-78497685D01*
X140996247Y-78497685D02*
X141234342Y-78497685D01*
X141234342Y-78497685D02*
X141329580Y-78545304D01*
X141329580Y-78545304D02*
X141377200Y-78592923D01*
X141377200Y-78592923D02*
X141424819Y-78688161D01*
X141424819Y-78688161D02*
X141424819Y-78973875D01*
X141424819Y-78973875D02*
X141377200Y-79069113D01*
X141377200Y-79069113D02*
X141329580Y-79116732D01*
X109601095Y-61668819D02*
X109601095Y-60668819D01*
X109601095Y-61145009D02*
X110172523Y-61145009D01*
X110172523Y-61668819D02*
X110172523Y-60668819D01*
X111172523Y-61668819D02*
X110601095Y-61668819D01*
X110886809Y-61668819D02*
X110886809Y-60668819D01*
X110886809Y-60668819D02*
X110791571Y-60811676D01*
X110791571Y-60811676D02*
X110696333Y-60906914D01*
X110696333Y-60906914D02*
X110601095Y-60954533D01*
X109601095Y-113002219D02*
X109601095Y-112002219D01*
X109601095Y-112478409D02*
X110172523Y-112478409D01*
X110172523Y-113002219D02*
X110172523Y-112002219D01*
X110553476Y-112002219D02*
X111172523Y-112002219D01*
X111172523Y-112002219D02*
X110839190Y-112383171D01*
X110839190Y-112383171D02*
X110982047Y-112383171D01*
X110982047Y-112383171D02*
X111077285Y-112430790D01*
X111077285Y-112430790D02*
X111124904Y-112478409D01*
X111124904Y-112478409D02*
X111172523Y-112573647D01*
X111172523Y-112573647D02*
X111172523Y-112811742D01*
X111172523Y-112811742D02*
X111124904Y-112906980D01*
X111124904Y-112906980D02*
X111077285Y-112954600D01*
X111077285Y-112954600D02*
X110982047Y-113002219D01*
X110982047Y-113002219D02*
X110696333Y-113002219D01*
X110696333Y-113002219D02*
X110601095Y-112954600D01*
X110601095Y-112954600D02*
X110553476Y-112906980D01*
X125184794Y-79946304D02*
X125994317Y-79946304D01*
X125994317Y-79946304D02*
X126089555Y-79898685D01*
X126089555Y-79898685D02*
X126137175Y-79851066D01*
X126137175Y-79851066D02*
X126184794Y-79755828D01*
X126184794Y-79755828D02*
X126184794Y-79565352D01*
X126184794Y-79565352D02*
X126137175Y-79470114D01*
X126137175Y-79470114D02*
X126089555Y-79422495D01*
X126089555Y-79422495D02*
X125994317Y-79374876D01*
X125994317Y-79374876D02*
X125184794Y-79374876D01*
X125184794Y-78993923D02*
X125184794Y-78374876D01*
X125184794Y-78374876D02*
X125565746Y-78708209D01*
X125565746Y-78708209D02*
X125565746Y-78565352D01*
X125565746Y-78565352D02*
X125613365Y-78470114D01*
X125613365Y-78470114D02*
X125660984Y-78422495D01*
X125660984Y-78422495D02*
X125756222Y-78374876D01*
X125756222Y-78374876D02*
X125994317Y-78374876D01*
X125994317Y-78374876D02*
X126089555Y-78422495D01*
X126089555Y-78422495D02*
X126137175Y-78470114D01*
X126137175Y-78470114D02*
X126184794Y-78565352D01*
X126184794Y-78565352D02*
X126184794Y-78851066D01*
X126184794Y-78851066D02*
X126137175Y-78946304D01*
X126137175Y-78946304D02*
X126089555Y-78993923D01*
X152947019Y-80035304D02*
X153756542Y-80035304D01*
X153756542Y-80035304D02*
X153851780Y-79987685D01*
X153851780Y-79987685D02*
X153899400Y-79940066D01*
X153899400Y-79940066D02*
X153947019Y-79844828D01*
X153947019Y-79844828D02*
X153947019Y-79654352D01*
X153947019Y-79654352D02*
X153899400Y-79559114D01*
X153899400Y-79559114D02*
X153851780Y-79511495D01*
X153851780Y-79511495D02*
X153756542Y-79463876D01*
X153756542Y-79463876D02*
X152947019Y-79463876D01*
X153947019Y-78463876D02*
X153947019Y-79035304D01*
X153947019Y-78749590D02*
X152947019Y-78749590D01*
X152947019Y-78749590D02*
X153089876Y-78844828D01*
X153089876Y-78844828D02*
X153185114Y-78940066D01*
X153185114Y-78940066D02*
X153232733Y-79035304D01*
X121247184Y-71009628D02*
X121247184Y-71485819D01*
X120913851Y-70485819D02*
X121247184Y-71009628D01*
X121247184Y-71009628D02*
X121580517Y-70485819D01*
X122437660Y-71485819D02*
X121866232Y-71485819D01*
X122151946Y-71485819D02*
X122151946Y-70485819D01*
X122151946Y-70485819D02*
X122056708Y-70628676D01*
X122056708Y-70628676D02*
X121961470Y-70723914D01*
X121961470Y-70723914D02*
X121866232Y-70771533D01*
D12*
%TO.C,C4*%
X126879375Y-67767000D02*
X126879375Y-66167000D01*
X126879375Y-66167000D02*
X123879375Y-66167000D01*
X123879375Y-67767000D02*
X126879375Y-67767000D01*
X123879375Y-66167000D02*
X123879375Y-67767000D01*
%TO.C,C1*%
X159074800Y-106335200D02*
X161574800Y-106335200D01*
X161574800Y-106335200D02*
X161574800Y-101335200D01*
X159074800Y-101335200D02*
X159074800Y-106335200D01*
X161574800Y-101335200D02*
X159074800Y-101335200D01*
%TO.C,C2*%
X112044800Y-77281400D02*
X109544800Y-77281400D01*
X109544800Y-77281400D02*
X109544800Y-82281400D01*
X112044800Y-82281400D02*
X112044800Y-77281400D01*
X109544800Y-82281400D02*
X112044800Y-82281400D01*
%TO.C,Q1*%
X147757200Y-68161000D02*
X147757200Y-64661000D01*
X143527200Y-66421000D02*
G75*
G03*
X147760825Y-68174625I2480000J0D01*
G01*
X147760825Y-64667375D02*
G75*
G03*
X143527200Y-66421000I-1753625J-1753625D01*
G01*
%TO.C,R1*%
X140538200Y-63931800D02*
X140538200Y-64591800D01*
X141788200Y-64591800D02*
X139288200Y-64591800D01*
X139288200Y-64591800D02*
X139288200Y-70891800D01*
X141788200Y-70891800D02*
X141788200Y-64591800D01*
X139288200Y-70891800D02*
X141788200Y-70891800D01*
X140538200Y-71551800D02*
X140538200Y-70891800D01*
%TO.C,C5*%
X119493375Y-67767000D02*
X119493375Y-66167000D01*
X119493375Y-66167000D02*
X116493375Y-66167000D01*
X116493375Y-67767000D02*
X119493375Y-67767000D01*
X116493375Y-66167000D02*
X116493375Y-67767000D01*
%TO.C,R2*%
X157505400Y-63931800D02*
X157505400Y-64591800D01*
X158755400Y-64591800D02*
X156255400Y-64591800D01*
X156255400Y-64591800D02*
X156255400Y-70891800D01*
X158755400Y-70891800D02*
X158755400Y-64591800D01*
X156255400Y-70891800D02*
X158755400Y-70891800D01*
X157505400Y-71551800D02*
X157505400Y-70891800D01*
%TO.C,U2*%
X157038800Y-91390200D02*
X158038800Y-92390200D01*
X117398800Y-91390200D02*
X157038800Y-91390200D01*
X158038800Y-92390200D02*
X158038800Y-106120200D01*
X158038800Y-106120200D02*
X117398800Y-106120200D01*
X117398800Y-106120200D02*
X117398800Y-91390200D01*
%TO.C,C3*%
X139720000Y-81783400D02*
X142220000Y-81783400D01*
X142220000Y-81783400D02*
X142220000Y-76783400D01*
X139720000Y-76783400D02*
X139720000Y-81783400D01*
X142220000Y-76783400D02*
X139720000Y-76783400D01*
%TO.C,D1*%
X150336200Y-65254810D02*
X150336200Y-67587190D01*
X150335646Y-67586475D02*
G75*
G03*
X150336201Y-65254810I1500554J1165475D01*
G01*
X153336200Y-66421000D02*
G75*
G03*
X150336200Y-66421000I-1500000J0D01*
G01*
X150336200Y-66421000D02*
G75*
G03*
X153336200Y-66421000I1500000J0D01*
G01*
%TO.C,U3*%
X115299975Y-82359400D02*
X114299975Y-81359400D01*
X137159975Y-82359400D02*
X115299975Y-82359400D01*
X114299975Y-81359400D02*
X114299975Y-76009400D01*
X114299975Y-76009400D02*
X137159975Y-76009400D01*
X137159975Y-76009400D02*
X137159975Y-82359400D01*
%TO.C,U1*%
X144332200Y-82448400D02*
X143332200Y-81448400D01*
X163652200Y-82448400D02*
X144332200Y-82448400D01*
X143332200Y-81448400D02*
X143332200Y-76098400D01*
X143332200Y-76098400D02*
X163652200Y-76098400D01*
X163652200Y-76098400D02*
X163652200Y-82448400D01*
%TO.C,Y1*%
X124923375Y-73356000D02*
X118523375Y-73356000D01*
X124923375Y-68706000D02*
X118523375Y-68706000D01*
X124723375Y-73031000D02*
X118723375Y-73031000D01*
X124723375Y-69031000D02*
X118723375Y-69031000D01*
X124923375Y-73356000D02*
G75*
G03*
X124923375Y-68706000I0J2325000D01*
G01*
X124723375Y-73031000D02*
G75*
G03*
X124723375Y-69031000I0J2000000D01*
G01*
X118723375Y-69031000D02*
G75*
G03*
X118723375Y-73031000I0J-2000000D01*
G01*
X118523375Y-68706000D02*
G75*
G03*
X118523375Y-73356000I0J-2325000D01*
G01*
%TD*%
M02*
