M48
; DRILL file {KiCad 7.0.11-7.0.11~ubuntu22.04.1} date Fri 25 Oct 2024 06:54:14 PM EDT
; FORMAT={-:-/ absolute / metric / decimal}
; #@! TF.CreationDate,2024-10-25T18:54:14-04:00
; #@! TF.GenerationSoftware,Kicad,Pcbnew,7.0.11-7.0.11~ubuntu22.04.1
; #@! TF.FileFunction,MixedPlating,1,2
FMAT,2
METRIC
; #@! TA.AperFunction,Plated,PTH,ViaDrill
T1C0.610
; #@! TA.AperFunction,Plated,PTH,ComponentDrill
T2C0.800
; #@! TA.AperFunction,Plated,PTH,ComponentDrill
T3C0.900
; #@! TA.AperFunction,Plated,PTH,ComponentDrill
T4C3.200
%
G90
G05
T1
X144.196Y-114.833
X144.475Y-109.525
X145.593Y-108.306
T2
X110.795Y-77.281
X110.795Y-82.281
X115.57Y-75.374
X115.57Y-82.994
X116.743Y-66.967
X118.11Y-75.374
X118.11Y-82.994
X118.669Y-91.135
X118.669Y-106.375
X119.243Y-66.967
X119.283Y-71.031
X120.65Y-75.374
X120.65Y-82.994
X121.209Y-91.135
X121.209Y-106.375
X123.19Y-75.374
X123.19Y-82.994
X123.749Y-91.135
X123.749Y-106.375
X124.129Y-66.967
X124.163Y-71.031
X125.73Y-75.374
X125.73Y-82.994
X126.289Y-91.135
X126.289Y-106.375
X126.629Y-66.967
X128.27Y-75.374
X128.27Y-82.994
X128.829Y-91.135
X128.829Y-106.375
X130.81Y-75.374
X130.81Y-82.994
X131.369Y-91.135
X131.369Y-106.375
X133.35Y-75.374
X133.35Y-82.994
X133.909Y-91.135
X133.909Y-106.375
X135.89Y-75.374
X135.89Y-82.994
X136.449Y-91.135
X136.449Y-106.375
X138.989Y-91.135
X138.989Y-106.375
X140.538Y-63.932
X140.538Y-71.552
X140.97Y-76.783
X140.97Y-81.783
X141.529Y-91.135
X141.529Y-106.375
X143.467Y-66.421
X144.069Y-91.135
X144.069Y-106.375
X144.602Y-75.463
X144.602Y-83.083
X146.007Y-63.881
X146.007Y-68.961
X146.609Y-91.135
X146.609Y-106.375
X147.142Y-75.463
X147.142Y-83.083
X149.149Y-91.135
X149.149Y-106.375
X149.682Y-75.463
X149.682Y-83.083
X151.689Y-91.135
X151.689Y-106.375
X152.222Y-75.463
X152.222Y-83.083
X154.229Y-91.135
X154.229Y-106.375
X154.762Y-75.463
X154.762Y-83.083
X156.769Y-91.135
X156.769Y-106.375
X157.302Y-75.463
X157.302Y-83.083
X157.505Y-63.932
X157.505Y-71.552
X159.842Y-75.463
X159.842Y-83.083
X160.325Y-101.335
X160.325Y-106.335
X162.382Y-75.463
X162.382Y-83.083
T3
X150.566Y-66.421
X153.106Y-66.421
T4
X110.363Y-61.214
X110.363Y-112.547
X166.878Y-61.214
X166.878Y-112.547
M30
