M48
; DRILL file {KiCad 7.0.11-7.0.11~ubuntu22.04.1} date Fri 09 Aug 2024 11:46:49 AM EDT
; FORMAT={-:-/ absolute / metric / decimal}
; #@! TF.CreationDate,2024-08-09T11:46:49-04:00
; #@! TF.GenerationSoftware,Kicad,Pcbnew,7.0.11-7.0.11~ubuntu22.04.1
; #@! TF.FileFunction,MixedPlating,1,2
FMAT,2
METRIC
; #@! TA.AperFunction,Plated,PTH,ViaDrill
T1C0.610
; #@! TA.AperFunction,Plated,PTH,ComponentDrill
T2C0.800
; #@! TA.AperFunction,Plated,PTH,ComponentDrill
T3C3.200
%
G90
G05
T1
X146.558Y-100.203
X146.558Y-104.14
X150.241Y-104.14
X150.368Y-100.203
X151.689Y-84.633
T2
X118.745Y-81.28
X118.745Y-96.52
X121.285Y-81.28
X121.285Y-96.52
X123.825Y-81.28
X123.825Y-96.52
X126.365Y-81.28
X126.365Y-96.52
X128.905Y-81.28
X128.905Y-96.52
X131.445Y-81.28
X131.445Y-96.52
X133.985Y-81.28
X133.985Y-96.52
X135.763Y-68.366
X135.763Y-73.366
X136.525Y-81.28
X136.525Y-96.52
X138.938Y-66.929
X138.938Y-74.549
X139.065Y-81.28
X139.065Y-96.52
X141.478Y-66.929
X141.478Y-74.549
X141.605Y-81.28
X141.605Y-96.52
X144.018Y-66.929
X144.018Y-74.549
X144.145Y-81.28
X144.145Y-96.52
X146.558Y-66.929
X146.558Y-74.549
X146.685Y-81.28
X146.685Y-96.52
X149.098Y-66.929
X149.098Y-74.549
X149.225Y-81.28
X149.225Y-96.52
X151.638Y-66.929
X151.638Y-74.549
X151.765Y-81.28
X151.765Y-96.52
X154.178Y-66.929
X154.178Y-74.549
X154.305Y-81.28
X154.305Y-96.52
X156.718Y-66.929
X156.718Y-74.549
X156.845Y-81.28
X156.845Y-96.52
X160.401Y-91.48
X160.401Y-96.48
X164.846Y-93.599
X164.846Y-96.099
T3
X110.363Y-61.214
X166.878Y-61.214
M30
