%TF.GenerationSoftware,KiCad,Pcbnew,7.0.11-7.0.11~ubuntu22.04.1*%
%TF.CreationDate,2024-08-09T11:46:46-04:00*%
%TF.ProjectId,colecovision_standard_cart,636f6c65-636f-4766-9973-696f6e5f7374,rev?*%
%TF.SameCoordinates,Original*%
%TF.FileFunction,AssemblyDrawing,Top*%
%FSLAX46Y46*%
G04 Gerber Fmt 4.6, Leading zero omitted, Abs format (unit mm)*
G04 Created by KiCad (PCBNEW 7.0.11-7.0.11~ubuntu22.04.1) date 2024-08-09 11:46:46*
%MOMM*%
%LPD*%
G01*
G04 APERTURE LIST*
%ADD10C,0.150000*%
%ADD11C,0.100000*%
G04 APERTURE END LIST*
D10*
X160760580Y-94146666D02*
X160808200Y-94194285D01*
X160808200Y-94194285D02*
X160855819Y-94337142D01*
X160855819Y-94337142D02*
X160855819Y-94432380D01*
X160855819Y-94432380D02*
X160808200Y-94575237D01*
X160808200Y-94575237D02*
X160712961Y-94670475D01*
X160712961Y-94670475D02*
X160617723Y-94718094D01*
X160617723Y-94718094D02*
X160427247Y-94765713D01*
X160427247Y-94765713D02*
X160284390Y-94765713D01*
X160284390Y-94765713D02*
X160093914Y-94718094D01*
X160093914Y-94718094D02*
X159998676Y-94670475D01*
X159998676Y-94670475D02*
X159903438Y-94575237D01*
X159903438Y-94575237D02*
X159855819Y-94432380D01*
X159855819Y-94432380D02*
X159855819Y-94337142D01*
X159855819Y-94337142D02*
X159903438Y-94194285D01*
X159903438Y-94194285D02*
X159951057Y-94146666D01*
X160855819Y-93194285D02*
X160855819Y-93765713D01*
X160855819Y-93479999D02*
X159855819Y-93479999D01*
X159855819Y-93479999D02*
X159998676Y-93575237D01*
X159998676Y-93575237D02*
X160093914Y-93670475D01*
X160093914Y-93670475D02*
X160141533Y-93765713D01*
X136300380Y-71032666D02*
X136348000Y-71080285D01*
X136348000Y-71080285D02*
X136395619Y-71223142D01*
X136395619Y-71223142D02*
X136395619Y-71318380D01*
X136395619Y-71318380D02*
X136348000Y-71461237D01*
X136348000Y-71461237D02*
X136252761Y-71556475D01*
X136252761Y-71556475D02*
X136157523Y-71604094D01*
X136157523Y-71604094D02*
X135967047Y-71651713D01*
X135967047Y-71651713D02*
X135824190Y-71651713D01*
X135824190Y-71651713D02*
X135633714Y-71604094D01*
X135633714Y-71604094D02*
X135538476Y-71556475D01*
X135538476Y-71556475D02*
X135443238Y-71461237D01*
X135443238Y-71461237D02*
X135395619Y-71318380D01*
X135395619Y-71318380D02*
X135395619Y-71223142D01*
X135395619Y-71223142D02*
X135443238Y-71080285D01*
X135443238Y-71080285D02*
X135490857Y-71032666D01*
X135490857Y-70651713D02*
X135443238Y-70604094D01*
X135443238Y-70604094D02*
X135395619Y-70508856D01*
X135395619Y-70508856D02*
X135395619Y-70270761D01*
X135395619Y-70270761D02*
X135443238Y-70175523D01*
X135443238Y-70175523D02*
X135490857Y-70127904D01*
X135490857Y-70127904D02*
X135586095Y-70080285D01*
X135586095Y-70080285D02*
X135681333Y-70080285D01*
X135681333Y-70080285D02*
X135824190Y-70127904D01*
X135824190Y-70127904D02*
X136395619Y-70699332D01*
X136395619Y-70699332D02*
X136395619Y-70080285D01*
X166116095Y-61668819D02*
X166116095Y-60668819D01*
X166116095Y-61145009D02*
X166687523Y-61145009D01*
X166687523Y-61668819D02*
X166687523Y-60668819D01*
X167116095Y-60764057D02*
X167163714Y-60716438D01*
X167163714Y-60716438D02*
X167258952Y-60668819D01*
X167258952Y-60668819D02*
X167497047Y-60668819D01*
X167497047Y-60668819D02*
X167592285Y-60716438D01*
X167592285Y-60716438D02*
X167639904Y-60764057D01*
X167639904Y-60764057D02*
X167687523Y-60859295D01*
X167687523Y-60859295D02*
X167687523Y-60954533D01*
X167687523Y-60954533D02*
X167639904Y-61097390D01*
X167639904Y-61097390D02*
X167068476Y-61668819D01*
X167068476Y-61668819D02*
X167687523Y-61668819D01*
X147282819Y-71500904D02*
X148092342Y-71500904D01*
X148092342Y-71500904D02*
X148187580Y-71453285D01*
X148187580Y-71453285D02*
X148235200Y-71405666D01*
X148235200Y-71405666D02*
X148282819Y-71310428D01*
X148282819Y-71310428D02*
X148282819Y-71119952D01*
X148282819Y-71119952D02*
X148235200Y-71024714D01*
X148235200Y-71024714D02*
X148187580Y-70977095D01*
X148187580Y-70977095D02*
X148092342Y-70929476D01*
X148092342Y-70929476D02*
X147282819Y-70929476D01*
X148282819Y-69929476D02*
X148282819Y-70500904D01*
X148282819Y-70215190D02*
X147282819Y-70215190D01*
X147282819Y-70215190D02*
X147425676Y-70310428D01*
X147425676Y-70310428D02*
X147520914Y-70405666D01*
X147520914Y-70405666D02*
X147568533Y-70500904D01*
X137249819Y-89661904D02*
X138059342Y-89661904D01*
X138059342Y-89661904D02*
X138154580Y-89614285D01*
X138154580Y-89614285D02*
X138202200Y-89566666D01*
X138202200Y-89566666D02*
X138249819Y-89471428D01*
X138249819Y-89471428D02*
X138249819Y-89280952D01*
X138249819Y-89280952D02*
X138202200Y-89185714D01*
X138202200Y-89185714D02*
X138154580Y-89138095D01*
X138154580Y-89138095D02*
X138059342Y-89090476D01*
X138059342Y-89090476D02*
X137249819Y-89090476D01*
X137345057Y-88661904D02*
X137297438Y-88614285D01*
X137297438Y-88614285D02*
X137249819Y-88519047D01*
X137249819Y-88519047D02*
X137249819Y-88280952D01*
X137249819Y-88280952D02*
X137297438Y-88185714D01*
X137297438Y-88185714D02*
X137345057Y-88138095D01*
X137345057Y-88138095D02*
X137440295Y-88090476D01*
X137440295Y-88090476D02*
X137535533Y-88090476D01*
X137535533Y-88090476D02*
X137678390Y-88138095D01*
X137678390Y-88138095D02*
X138249819Y-88709523D01*
X138249819Y-88709523D02*
X138249819Y-88090476D01*
X165205580Y-95491857D02*
X165253200Y-95539476D01*
X165253200Y-95539476D02*
X165300819Y-95682333D01*
X165300819Y-95682333D02*
X165300819Y-95777571D01*
X165300819Y-95777571D02*
X165253200Y-95920428D01*
X165253200Y-95920428D02*
X165157961Y-96015666D01*
X165157961Y-96015666D02*
X165062723Y-96063285D01*
X165062723Y-96063285D02*
X164872247Y-96110904D01*
X164872247Y-96110904D02*
X164729390Y-96110904D01*
X164729390Y-96110904D02*
X164538914Y-96063285D01*
X164538914Y-96063285D02*
X164443676Y-96015666D01*
X164443676Y-96015666D02*
X164348438Y-95920428D01*
X164348438Y-95920428D02*
X164300819Y-95777571D01*
X164300819Y-95777571D02*
X164300819Y-95682333D01*
X164300819Y-95682333D02*
X164348438Y-95539476D01*
X164348438Y-95539476D02*
X164396057Y-95491857D01*
X165300819Y-94539476D02*
X165300819Y-95110904D01*
X165300819Y-94825190D02*
X164300819Y-94825190D01*
X164300819Y-94825190D02*
X164443676Y-94920428D01*
X164443676Y-94920428D02*
X164538914Y-95015666D01*
X164538914Y-95015666D02*
X164586533Y-95110904D01*
X164300819Y-93920428D02*
X164300819Y-93825190D01*
X164300819Y-93825190D02*
X164348438Y-93729952D01*
X164348438Y-93729952D02*
X164396057Y-93682333D01*
X164396057Y-93682333D02*
X164491295Y-93634714D01*
X164491295Y-93634714D02*
X164681771Y-93587095D01*
X164681771Y-93587095D02*
X164919866Y-93587095D01*
X164919866Y-93587095D02*
X165110342Y-93634714D01*
X165110342Y-93634714D02*
X165205580Y-93682333D01*
X165205580Y-93682333D02*
X165253200Y-93729952D01*
X165253200Y-93729952D02*
X165300819Y-93825190D01*
X165300819Y-93825190D02*
X165300819Y-93920428D01*
X165300819Y-93920428D02*
X165253200Y-94015666D01*
X165253200Y-94015666D02*
X165205580Y-94063285D01*
X165205580Y-94063285D02*
X165110342Y-94110904D01*
X165110342Y-94110904D02*
X164919866Y-94158523D01*
X164919866Y-94158523D02*
X164681771Y-94158523D01*
X164681771Y-94158523D02*
X164491295Y-94110904D01*
X164491295Y-94110904D02*
X164396057Y-94063285D01*
X164396057Y-94063285D02*
X164348438Y-94015666D01*
X164348438Y-94015666D02*
X164300819Y-93920428D01*
X109601095Y-61668819D02*
X109601095Y-60668819D01*
X109601095Y-61145009D02*
X110172523Y-61145009D01*
X110172523Y-61668819D02*
X110172523Y-60668819D01*
X111172523Y-61668819D02*
X110601095Y-61668819D01*
X110886809Y-61668819D02*
X110886809Y-60668819D01*
X110886809Y-60668819D02*
X110791571Y-60811676D01*
X110791571Y-60811676D02*
X110696333Y-60906914D01*
X110696333Y-60906914D02*
X110601095Y-60954533D01*
D11*
%TO.C,C1*%
X159151000Y-96480000D02*
X161651000Y-96480000D01*
X161651000Y-96480000D02*
X161651000Y-91480000D01*
X159151000Y-91480000D02*
X159151000Y-96480000D01*
X161651000Y-91480000D02*
X159151000Y-91480000D01*
%TO.C,C2*%
X134513000Y-73366000D02*
X137013000Y-73366000D01*
X137013000Y-73366000D02*
X137013000Y-68366000D01*
X134513000Y-68366000D02*
X134513000Y-73366000D01*
X137013000Y-68366000D02*
X134513000Y-68366000D01*
%TO.C,U1*%
X138668000Y-73914000D02*
X137668000Y-72914000D01*
X157988000Y-73914000D02*
X138668000Y-73914000D01*
X137668000Y-72914000D02*
X137668000Y-67564000D01*
X137668000Y-67564000D02*
X157988000Y-67564000D01*
X157988000Y-67564000D02*
X157988000Y-73914000D01*
%TO.C,U2*%
X157115000Y-81535000D02*
X158115000Y-82535000D01*
X117475000Y-81535000D02*
X157115000Y-81535000D01*
X158115000Y-82535000D02*
X158115000Y-96265000D01*
X158115000Y-96265000D02*
X117475000Y-96265000D01*
X117475000Y-96265000D02*
X117475000Y-81535000D01*
%TO.C,C10*%
X163758500Y-96982605D02*
X163758500Y-96482605D01*
X163508500Y-96732605D02*
X164008500Y-96732605D01*
X167346000Y-94849000D02*
G75*
G03*
X162346000Y-94849000I-2500000J0D01*
G01*
X162346000Y-94849000D02*
G75*
G03*
X167346000Y-94849000I2500000J0D01*
G01*
%TD*%
M02*
