%TF.GenerationSoftware,KiCad,Pcbnew,7.0.11-7.0.11~ubuntu22.04.1*%
%TF.CreationDate,2024-08-09T11:46:46-04:00*%
%TF.ProjectId,colecovision_standard_cart,636f6c65-636f-4766-9973-696f6e5f7374,rev?*%
%TF.SameCoordinates,Original*%
%TF.FileFunction,Legend,Top*%
%TF.FilePolarity,Positive*%
%FSLAX46Y46*%
G04 Gerber Fmt 4.6, Leading zero omitted, Abs format (unit mm)*
G04 Created by KiCad (PCBNEW 7.0.11-7.0.11~ubuntu22.04.1) date 2024-08-09 11:46:46*
%MOMM*%
%LPD*%
G01*
G04 APERTURE LIST*
%ADD10C,0.150000*%
%ADD11C,0.120000*%
G04 APERTURE END LIST*
D10*
X160234333Y-90021580D02*
X160186714Y-90069200D01*
X160186714Y-90069200D02*
X160043857Y-90116819D01*
X160043857Y-90116819D02*
X159948619Y-90116819D01*
X159948619Y-90116819D02*
X159805762Y-90069200D01*
X159805762Y-90069200D02*
X159710524Y-89973961D01*
X159710524Y-89973961D02*
X159662905Y-89878723D01*
X159662905Y-89878723D02*
X159615286Y-89688247D01*
X159615286Y-89688247D02*
X159615286Y-89545390D01*
X159615286Y-89545390D02*
X159662905Y-89354914D01*
X159662905Y-89354914D02*
X159710524Y-89259676D01*
X159710524Y-89259676D02*
X159805762Y-89164438D01*
X159805762Y-89164438D02*
X159948619Y-89116819D01*
X159948619Y-89116819D02*
X160043857Y-89116819D01*
X160043857Y-89116819D02*
X160186714Y-89164438D01*
X160186714Y-89164438D02*
X160234333Y-89212057D01*
X161186714Y-90116819D02*
X160615286Y-90116819D01*
X160901000Y-90116819D02*
X160901000Y-89116819D01*
X160901000Y-89116819D02*
X160805762Y-89259676D01*
X160805762Y-89259676D02*
X160710524Y-89354914D01*
X160710524Y-89354914D02*
X160615286Y-89402533D01*
X135596333Y-66566580D02*
X135548714Y-66614200D01*
X135548714Y-66614200D02*
X135405857Y-66661819D01*
X135405857Y-66661819D02*
X135310619Y-66661819D01*
X135310619Y-66661819D02*
X135167762Y-66614200D01*
X135167762Y-66614200D02*
X135072524Y-66518961D01*
X135072524Y-66518961D02*
X135024905Y-66423723D01*
X135024905Y-66423723D02*
X134977286Y-66233247D01*
X134977286Y-66233247D02*
X134977286Y-66090390D01*
X134977286Y-66090390D02*
X135024905Y-65899914D01*
X135024905Y-65899914D02*
X135072524Y-65804676D01*
X135072524Y-65804676D02*
X135167762Y-65709438D01*
X135167762Y-65709438D02*
X135310619Y-65661819D01*
X135310619Y-65661819D02*
X135405857Y-65661819D01*
X135405857Y-65661819D02*
X135548714Y-65709438D01*
X135548714Y-65709438D02*
X135596333Y-65757057D01*
X135977286Y-65757057D02*
X136024905Y-65709438D01*
X136024905Y-65709438D02*
X136120143Y-65661819D01*
X136120143Y-65661819D02*
X136358238Y-65661819D01*
X136358238Y-65661819D02*
X136453476Y-65709438D01*
X136453476Y-65709438D02*
X136501095Y-65757057D01*
X136501095Y-65757057D02*
X136548714Y-65852295D01*
X136548714Y-65852295D02*
X136548714Y-65947533D01*
X136548714Y-65947533D02*
X136501095Y-66090390D01*
X136501095Y-66090390D02*
X135929667Y-66661819D01*
X135929667Y-66661819D02*
X136548714Y-66661819D01*
X170129295Y-58976419D02*
X170129295Y-57976419D01*
X170129295Y-58452609D02*
X170700723Y-58452609D01*
X170700723Y-58976419D02*
X170700723Y-57976419D01*
X171129295Y-58071657D02*
X171176914Y-58024038D01*
X171176914Y-58024038D02*
X171272152Y-57976419D01*
X171272152Y-57976419D02*
X171510247Y-57976419D01*
X171510247Y-57976419D02*
X171605485Y-58024038D01*
X171605485Y-58024038D02*
X171653104Y-58071657D01*
X171653104Y-58071657D02*
X171700723Y-58166895D01*
X171700723Y-58166895D02*
X171700723Y-58262133D01*
X171700723Y-58262133D02*
X171653104Y-58404990D01*
X171653104Y-58404990D02*
X171081676Y-58976419D01*
X171081676Y-58976419D02*
X171700723Y-58976419D01*
X137922095Y-64605819D02*
X137922095Y-65415342D01*
X137922095Y-65415342D02*
X137969714Y-65510580D01*
X137969714Y-65510580D02*
X138017333Y-65558200D01*
X138017333Y-65558200D02*
X138112571Y-65605819D01*
X138112571Y-65605819D02*
X138303047Y-65605819D01*
X138303047Y-65605819D02*
X138398285Y-65558200D01*
X138398285Y-65558200D02*
X138445904Y-65510580D01*
X138445904Y-65510580D02*
X138493523Y-65415342D01*
X138493523Y-65415342D02*
X138493523Y-64605819D01*
X139493523Y-65605819D02*
X138922095Y-65605819D01*
X139207809Y-65605819D02*
X139207809Y-64605819D01*
X139207809Y-64605819D02*
X139112571Y-64748676D01*
X139112571Y-64748676D02*
X139017333Y-64843914D01*
X139017333Y-64843914D02*
X138922095Y-64891533D01*
X117729095Y-78829819D02*
X117729095Y-79639342D01*
X117729095Y-79639342D02*
X117776714Y-79734580D01*
X117776714Y-79734580D02*
X117824333Y-79782200D01*
X117824333Y-79782200D02*
X117919571Y-79829819D01*
X117919571Y-79829819D02*
X118110047Y-79829819D01*
X118110047Y-79829819D02*
X118205285Y-79782200D01*
X118205285Y-79782200D02*
X118252904Y-79734580D01*
X118252904Y-79734580D02*
X118300523Y-79639342D01*
X118300523Y-79639342D02*
X118300523Y-78829819D01*
X118729095Y-78925057D02*
X118776714Y-78877438D01*
X118776714Y-78877438D02*
X118871952Y-78829819D01*
X118871952Y-78829819D02*
X119110047Y-78829819D01*
X119110047Y-78829819D02*
X119205285Y-78877438D01*
X119205285Y-78877438D02*
X119252904Y-78925057D01*
X119252904Y-78925057D02*
X119300523Y-79020295D01*
X119300523Y-79020295D02*
X119300523Y-79115533D01*
X119300523Y-79115533D02*
X119252904Y-79258390D01*
X119252904Y-79258390D02*
X118681476Y-79829819D01*
X118681476Y-79829819D02*
X119300523Y-79829819D01*
X164330142Y-91672580D02*
X164282523Y-91720200D01*
X164282523Y-91720200D02*
X164139666Y-91767819D01*
X164139666Y-91767819D02*
X164044428Y-91767819D01*
X164044428Y-91767819D02*
X163901571Y-91720200D01*
X163901571Y-91720200D02*
X163806333Y-91624961D01*
X163806333Y-91624961D02*
X163758714Y-91529723D01*
X163758714Y-91529723D02*
X163711095Y-91339247D01*
X163711095Y-91339247D02*
X163711095Y-91196390D01*
X163711095Y-91196390D02*
X163758714Y-91005914D01*
X163758714Y-91005914D02*
X163806333Y-90910676D01*
X163806333Y-90910676D02*
X163901571Y-90815438D01*
X163901571Y-90815438D02*
X164044428Y-90767819D01*
X164044428Y-90767819D02*
X164139666Y-90767819D01*
X164139666Y-90767819D02*
X164282523Y-90815438D01*
X164282523Y-90815438D02*
X164330142Y-90863057D01*
X165282523Y-91767819D02*
X164711095Y-91767819D01*
X164996809Y-91767819D02*
X164996809Y-90767819D01*
X164996809Y-90767819D02*
X164901571Y-90910676D01*
X164901571Y-90910676D02*
X164806333Y-91005914D01*
X164806333Y-91005914D02*
X164711095Y-91053533D01*
X165901571Y-90767819D02*
X165996809Y-90767819D01*
X165996809Y-90767819D02*
X166092047Y-90815438D01*
X166092047Y-90815438D02*
X166139666Y-90863057D01*
X166139666Y-90863057D02*
X166187285Y-90958295D01*
X166187285Y-90958295D02*
X166234904Y-91148771D01*
X166234904Y-91148771D02*
X166234904Y-91386866D01*
X166234904Y-91386866D02*
X166187285Y-91577342D01*
X166187285Y-91577342D02*
X166139666Y-91672580D01*
X166139666Y-91672580D02*
X166092047Y-91720200D01*
X166092047Y-91720200D02*
X165996809Y-91767819D01*
X165996809Y-91767819D02*
X165901571Y-91767819D01*
X165901571Y-91767819D02*
X165806333Y-91720200D01*
X165806333Y-91720200D02*
X165758714Y-91672580D01*
X165758714Y-91672580D02*
X165711095Y-91577342D01*
X165711095Y-91577342D02*
X165663476Y-91386866D01*
X165663476Y-91386866D02*
X165663476Y-91148771D01*
X165663476Y-91148771D02*
X165711095Y-90958295D01*
X165711095Y-90958295D02*
X165758714Y-90863057D01*
X165758714Y-90863057D02*
X165806333Y-90815438D01*
X165806333Y-90815438D02*
X165901571Y-90767819D01*
X105156095Y-59332019D02*
X105156095Y-58332019D01*
X105156095Y-58808209D02*
X105727523Y-58808209D01*
X105727523Y-59332019D02*
X105727523Y-58332019D01*
X106727523Y-59332019D02*
X106156095Y-59332019D01*
X106441809Y-59332019D02*
X106441809Y-58332019D01*
X106441809Y-58332019D02*
X106346571Y-58474876D01*
X106346571Y-58474876D02*
X106251333Y-58570114D01*
X106251333Y-58570114D02*
X106156095Y-58617733D01*
D11*
%TO.C,C1*%
X159031000Y-96600000D02*
X159346000Y-96600000D01*
X159031000Y-96600000D02*
X159031000Y-91360000D01*
X161456000Y-96600000D02*
X161771000Y-96600000D01*
X161771000Y-96600000D02*
X161771000Y-91360000D01*
X159031000Y-91360000D02*
X159346000Y-91360000D01*
X161456000Y-91360000D02*
X161771000Y-91360000D01*
%TO.C,C2*%
X134393000Y-73486000D02*
X134708000Y-73486000D01*
X134393000Y-73486000D02*
X134393000Y-68246000D01*
X136818000Y-73486000D02*
X137133000Y-73486000D01*
X137133000Y-73486000D02*
X137133000Y-68246000D01*
X134393000Y-68246000D02*
X134708000Y-68246000D01*
X136818000Y-68246000D02*
X137133000Y-68246000D01*
%TO.C,U1*%
X137608000Y-73389000D02*
X158048000Y-73389000D01*
X158048000Y-73389000D02*
X158048000Y-68089000D01*
X137608000Y-71739000D02*
X137608000Y-73389000D01*
X137608000Y-68089000D02*
X137608000Y-69739000D01*
X158048000Y-68089000D02*
X137608000Y-68089000D01*
X137608000Y-71739000D02*
G75*
G03*
X137608000Y-69739000I0J1000000D01*
G01*
%TO.C,U2*%
X158175000Y-82440000D02*
X117415000Y-82440000D01*
X117415000Y-82440000D02*
X117415000Y-95360000D01*
X158175000Y-87900000D02*
X158175000Y-82440000D01*
X158175000Y-95360000D02*
X158175000Y-89900000D01*
X117415000Y-95360000D02*
X158175000Y-95360000D01*
X158175000Y-87900000D02*
G75*
G03*
X158175000Y-89900000I0J-1000000D01*
G01*
%TO.C,C10*%
X163371000Y-97653775D02*
X163371000Y-97153775D01*
X163121000Y-97403775D02*
X163621000Y-97403775D01*
X162266000Y-94849000D02*
X167426000Y-94849000D01*
X162266000Y-94809000D02*
X167426000Y-94809000D01*
X162267000Y-94769000D02*
X167425000Y-94769000D01*
X162268000Y-94729000D02*
X167424000Y-94729000D01*
X162270000Y-94689000D02*
X167422000Y-94689000D01*
X162273000Y-94649000D02*
X167419000Y-94649000D01*
X162277000Y-94609000D02*
X163806000Y-94609000D01*
X165886000Y-94609000D02*
X167415000Y-94609000D01*
X162281000Y-94569000D02*
X163806000Y-94569000D01*
X165886000Y-94569000D02*
X167411000Y-94569000D01*
X162285000Y-94529000D02*
X163806000Y-94529000D01*
X165886000Y-94529000D02*
X167407000Y-94529000D01*
X162290000Y-94489000D02*
X163806000Y-94489000D01*
X165886000Y-94489000D02*
X167402000Y-94489000D01*
X162296000Y-94449000D02*
X163806000Y-94449000D01*
X165886000Y-94449000D02*
X167396000Y-94449000D01*
X162303000Y-94409000D02*
X163806000Y-94409000D01*
X165886000Y-94409000D02*
X167389000Y-94409000D01*
X162310000Y-94369000D02*
X163806000Y-94369000D01*
X165886000Y-94369000D02*
X167382000Y-94369000D01*
X162318000Y-94329000D02*
X163806000Y-94329000D01*
X165886000Y-94329000D02*
X167374000Y-94329000D01*
X162326000Y-94289000D02*
X163806000Y-94289000D01*
X165886000Y-94289000D02*
X167366000Y-94289000D01*
X162335000Y-94249000D02*
X163806000Y-94249000D01*
X165886000Y-94249000D02*
X167357000Y-94249000D01*
X162345000Y-94209000D02*
X163806000Y-94209000D01*
X165886000Y-94209000D02*
X167347000Y-94209000D01*
X162355000Y-94169000D02*
X163806000Y-94169000D01*
X165886000Y-94169000D02*
X167337000Y-94169000D01*
X162366000Y-94128000D02*
X163806000Y-94128000D01*
X165886000Y-94128000D02*
X167326000Y-94128000D01*
X162378000Y-94088000D02*
X163806000Y-94088000D01*
X165886000Y-94088000D02*
X167314000Y-94088000D01*
X162391000Y-94048000D02*
X163806000Y-94048000D01*
X165886000Y-94048000D02*
X167301000Y-94048000D01*
X162404000Y-94008000D02*
X163806000Y-94008000D01*
X165886000Y-94008000D02*
X167288000Y-94008000D01*
X162418000Y-93968000D02*
X163806000Y-93968000D01*
X165886000Y-93968000D02*
X167274000Y-93968000D01*
X162432000Y-93928000D02*
X163806000Y-93928000D01*
X165886000Y-93928000D02*
X167260000Y-93928000D01*
X162448000Y-93888000D02*
X163806000Y-93888000D01*
X165886000Y-93888000D02*
X167244000Y-93888000D01*
X162464000Y-93848000D02*
X163806000Y-93848000D01*
X165886000Y-93848000D02*
X167228000Y-93848000D01*
X162481000Y-93808000D02*
X163806000Y-93808000D01*
X165886000Y-93808000D02*
X167211000Y-93808000D01*
X162498000Y-93768000D02*
X163806000Y-93768000D01*
X165886000Y-93768000D02*
X167194000Y-93768000D01*
X162517000Y-93728000D02*
X163806000Y-93728000D01*
X165886000Y-93728000D02*
X167175000Y-93728000D01*
X162536000Y-93688000D02*
X163806000Y-93688000D01*
X165886000Y-93688000D02*
X167156000Y-93688000D01*
X162556000Y-93648000D02*
X163806000Y-93648000D01*
X165886000Y-93648000D02*
X167136000Y-93648000D01*
X162578000Y-93608000D02*
X163806000Y-93608000D01*
X165886000Y-93608000D02*
X167114000Y-93608000D01*
X162599000Y-93568000D02*
X163806000Y-93568000D01*
X165886000Y-93568000D02*
X167093000Y-93568000D01*
X162622000Y-93528000D02*
X163806000Y-93528000D01*
X165886000Y-93528000D02*
X167070000Y-93528000D01*
X162646000Y-93488000D02*
X163806000Y-93488000D01*
X165886000Y-93488000D02*
X167046000Y-93488000D01*
X162671000Y-93448000D02*
X163806000Y-93448000D01*
X165886000Y-93448000D02*
X167021000Y-93448000D01*
X162697000Y-93408000D02*
X163806000Y-93408000D01*
X165886000Y-93408000D02*
X166995000Y-93408000D01*
X162724000Y-93368000D02*
X163806000Y-93368000D01*
X165886000Y-93368000D02*
X166968000Y-93368000D01*
X162751000Y-93328000D02*
X163806000Y-93328000D01*
X165886000Y-93328000D02*
X166941000Y-93328000D01*
X162781000Y-93288000D02*
X163806000Y-93288000D01*
X165886000Y-93288000D02*
X166911000Y-93288000D01*
X162811000Y-93248000D02*
X163806000Y-93248000D01*
X165886000Y-93248000D02*
X166881000Y-93248000D01*
X162842000Y-93208000D02*
X163806000Y-93208000D01*
X165886000Y-93208000D02*
X166850000Y-93208000D01*
X162875000Y-93168000D02*
X163806000Y-93168000D01*
X165886000Y-93168000D02*
X166817000Y-93168000D01*
X162909000Y-93128000D02*
X163806000Y-93128000D01*
X165886000Y-93128000D02*
X166783000Y-93128000D01*
X162945000Y-93088000D02*
X163806000Y-93088000D01*
X165886000Y-93088000D02*
X166747000Y-93088000D01*
X162982000Y-93048000D02*
X163806000Y-93048000D01*
X165886000Y-93048000D02*
X166710000Y-93048000D01*
X163020000Y-93008000D02*
X163806000Y-93008000D01*
X165886000Y-93008000D02*
X166672000Y-93008000D01*
X163061000Y-92968000D02*
X163806000Y-92968000D01*
X165886000Y-92968000D02*
X166631000Y-92968000D01*
X163103000Y-92928000D02*
X163806000Y-92928000D01*
X165886000Y-92928000D02*
X166589000Y-92928000D01*
X163147000Y-92888000D02*
X163806000Y-92888000D01*
X165886000Y-92888000D02*
X166545000Y-92888000D01*
X163193000Y-92848000D02*
X163806000Y-92848000D01*
X165886000Y-92848000D02*
X166499000Y-92848000D01*
X163241000Y-92808000D02*
X163806000Y-92808000D01*
X165886000Y-92808000D02*
X166451000Y-92808000D01*
X163292000Y-92768000D02*
X163806000Y-92768000D01*
X165886000Y-92768000D02*
X166400000Y-92768000D01*
X163346000Y-92728000D02*
X163806000Y-92728000D01*
X165886000Y-92728000D02*
X166346000Y-92728000D01*
X163403000Y-92688000D02*
X163806000Y-92688000D01*
X165886000Y-92688000D02*
X166289000Y-92688000D01*
X163463000Y-92648000D02*
X163806000Y-92648000D01*
X165886000Y-92648000D02*
X166229000Y-92648000D01*
X163527000Y-92608000D02*
X163806000Y-92608000D01*
X165886000Y-92608000D02*
X166165000Y-92608000D01*
X163595000Y-92568000D02*
X163806000Y-92568000D01*
X165886000Y-92568000D02*
X166097000Y-92568000D01*
X163668000Y-92528000D02*
X166024000Y-92528000D01*
X163748000Y-92488000D02*
X165944000Y-92488000D01*
X163835000Y-92448000D02*
X165857000Y-92448000D01*
X163931000Y-92408000D02*
X165761000Y-92408000D01*
X164041000Y-92368000D02*
X165651000Y-92368000D01*
X164169000Y-92328000D02*
X165523000Y-92328000D01*
X164328000Y-92288000D02*
X165364000Y-92288000D01*
X164562000Y-92248000D02*
X165130000Y-92248000D01*
X167466000Y-94849000D02*
G75*
G03*
X162226000Y-94849000I-2620000J0D01*
G01*
X162226000Y-94849000D02*
G75*
G03*
X167466000Y-94849000I2620000J0D01*
G01*
%TD*%
M02*
