%TF.GenerationSoftware,KiCad,Pcbnew,7.0.11-7.0.11~ubuntu22.04.1*%
%TF.CreationDate,2024-08-09T11:46:46-04:00*%
%TF.ProjectId,colecovision_standard_cart,636f6c65-636f-4766-9973-696f6e5f7374,rev?*%
%TF.SameCoordinates,Original*%
%TF.FileFunction,Other,User*%
%FSLAX46Y46*%
G04 Gerber Fmt 4.6, Leading zero omitted, Abs format (unit mm)*
G04 Created by KiCad (PCBNEW 7.0.11-7.0.11~ubuntu22.04.1) date 2024-08-09 11:46:46*
%MOMM*%
%LPD*%
G01*
G04 APERTURE LIST*
%ADD10C,0.050000*%
G04 APERTURE END LIST*
D10*
%TO.C,C1*%
X158901000Y-97530000D02*
X161901000Y-97530000D01*
X161901000Y-97530000D02*
X161901000Y-90430000D01*
X158901000Y-90430000D02*
X158901000Y-97530000D01*
X161901000Y-90430000D02*
X158901000Y-90430000D01*
%TO.C,C2*%
X134263000Y-74416000D02*
X137263000Y-74416000D01*
X137263000Y-74416000D02*
X137263000Y-67316000D01*
X134263000Y-67316000D02*
X134263000Y-74416000D01*
X137263000Y-67316000D02*
X134263000Y-67316000D01*
%TO.C,H2*%
X170328000Y-61214000D02*
G75*
G03*
X163428000Y-61214000I-3450000J0D01*
G01*
X163428000Y-61214000D02*
G75*
G03*
X170328000Y-61214000I3450000J0D01*
G01*
%TO.C,U1*%
X137388000Y-75649000D02*
X158238000Y-75649000D01*
X158238000Y-75649000D02*
X158238000Y-65849000D01*
X137388000Y-65849000D02*
X137388000Y-75649000D01*
X158238000Y-65849000D02*
X137388000Y-65849000D01*
%TO.C,U2*%
X158395000Y-80230000D02*
X117195000Y-80230000D01*
X117195000Y-80230000D02*
X117195000Y-97580000D01*
X158395000Y-97580000D02*
X158395000Y-80230000D01*
X117195000Y-97580000D02*
X158395000Y-97580000D01*
%TO.C,C10*%
X167596000Y-94849000D02*
G75*
G03*
X162096000Y-94849000I-2750000J0D01*
G01*
X162096000Y-94849000D02*
G75*
G03*
X167596000Y-94849000I2750000J0D01*
G01*
%TO.C,H1*%
X113813000Y-61214000D02*
G75*
G03*
X106913000Y-61214000I-3450000J0D01*
G01*
X106913000Y-61214000D02*
G75*
G03*
X113813000Y-61214000I3450000J0D01*
G01*
%TD*%
M02*
